<svg width="20" height="20" viewBox="0 0 20 20" fill="none" xmlns="http://www.w3.org/2000/svg">
<g clip-path="url(#clip0_5_620)">
<path d="M10.5307 9.46943L10.5306 4.75046C10.5307 4.4574 10.293 4.21975 9.99996 4.21987C9.70678 4.21986 9.46939 4.45726 9.46939 4.75044L9.46949 9.46941L4.7504 9.46943C4.45722 9.46943 4.21982 9.70682 4.21983 10C4.21971 10.2931 4.45736 10.5307 4.75042 10.5306L9.46951 10.5306L9.46949 15.2497C9.46937 15.5427 9.70702 15.7804 10.0001 15.7803C10.1465 15.7801 10.2793 15.7207 10.3752 15.6248C10.4711 15.5289 10.5305 15.3962 10.5305 15.2496L10.5306 10.5305L15.2495 10.5306C15.3961 10.5306 15.5288 10.4712 15.6248 10.3752C15.7207 10.2793 15.7801 10.1466 15.7801 10C15.7802 9.70694 15.5426 9.46928 15.2495 9.4694L10.5307 9.46943Z" fill="#097F8D"/>
<circle cx="10" cy="10" r="9.5" stroke="#097F8D"/>
</g>
<defs>
<clipPath id="clip0_5_620">
<rect width="20" height="20" fill="white"/>
</clipPath>
</defs>
</svg>
