<svg width="16" height="16" viewBox="0 0 16 16" fill="none" xmlns="http://www.w3.org/2000/svg">
<path d="M14.2857 1.71428H12.5714V0.571439C12.5714 0.255837 12.3156 0 12 0C11.6844 0 11.4286 0.255837 11.4286 0.571439V1.71428H4.57141V0.571439C4.57141 0.255837 4.31558 0 4.00001 0C3.68444 0 3.42857 0.255837 3.42857 0.571439V1.71428H1.71428C0.767511 1.71428 0 2.4818 0 3.42857V14.2857C0 15.2325 0.767511 16 1.71428 16H14.2857C15.2325 16 16 15.2325 16 14.2857V3.42857C16 2.4818 15.2325 1.71428 14.2857 1.71428ZM14.8571 14.2857C14.8571 14.6013 14.6013 14.8572 14.2857 14.8572H1.71428C1.39868 14.8572 1.14285 14.6013 1.14285 14.2857V6.85714H14.8571V14.2857ZM14.8571 5.71429H1.14285V3.42857C1.14285 3.11297 1.39868 2.85713 1.71428 2.85713H3.42857V3.99997C3.42857 4.31558 3.68441 4.57141 4.00001 4.57141C4.31561 4.57141 4.57145 4.31558 4.57145 3.99997V2.85713H11.4286V3.99997C11.4286 4.31558 11.6844 4.57141 12 4.57141C12.3156 4.57141 12.5715 4.31558 12.5715 3.99997V2.85713H14.2857C14.6014 2.85713 14.8572 3.11297 14.8572 3.42857V5.71429H14.8571Z" fill="#9E9E9E"/>
<path d="M4.57147 8H3.42862C3.11302 8 2.85718 8.25584 2.85718 8.57144C2.85718 8.88705 3.11302 9.14289 3.42862 9.14289H4.57147C4.88707 9.14289 5.14291 8.88705 5.14291 8.57144C5.14291 8.25584 4.88707 8 4.57147 8Z" fill="#9E9E9E"/>
<path d="M8.57147 8H7.42862C7.11302 8 6.85718 8.25584 6.85718 8.57144C6.85718 8.88705 7.11302 9.14289 7.42862 9.14289H8.57147C8.88707 9.14289 9.14291 8.88705 9.14291 8.57144C9.14291 8.25584 8.88707 8 8.57147 8Z" fill="#9E9E9E"/>
<path d="M12.5715 8H11.4286C11.113 8 10.8572 8.25584 10.8572 8.57144C10.8572 8.88705 11.113 9.14289 11.4286 9.14289H12.5715C12.8871 9.14289 13.1429 8.88705 13.1429 8.57144C13.1429 8.25584 12.887 8 12.5715 8Z" fill="#9E9E9E"/>
<path d="M4.57147 10.2857H3.42862C3.11302 10.2857 2.85718 10.5415 2.85718 10.8571C2.85718 11.1727 3.11302 11.4286 3.42862 11.4286H4.57147C4.88707 11.4286 5.14291 11.1727 5.14291 10.8571C5.14291 10.5415 4.88707 10.2857 4.57147 10.2857Z" fill="#9E9E9E"/>
<path d="M8.57147 10.2857H7.42862C7.11302 10.2857 6.85718 10.5415 6.85718 10.8571C6.85718 11.1727 7.11302 11.4286 7.42862 11.4286H8.57147C8.88707 11.4286 9.14291 11.1727 9.14291 10.8571C9.14291 10.5415 8.88707 10.2857 8.57147 10.2857Z" fill="#9E9E9E"/>
<path d="M12.5715 10.2857H11.4286C11.113 10.2857 10.8572 10.5415 10.8572 10.8571C10.8572 11.1727 11.113 11.4286 11.4286 11.4286H12.5715C12.8871 11.4286 13.1429 11.1727 13.1429 10.8571C13.1429 10.5415 12.887 10.2857 12.5715 10.2857Z" fill="#9E9E9E"/>
<path d="M4.57147 12.5714H3.42862C3.11302 12.5714 2.85718 12.8272 2.85718 13.1429C2.85718 13.4585 3.11302 13.7143 3.42862 13.7143H4.57147C4.88707 13.7143 5.14291 13.4584 5.14291 13.1428C5.14291 12.8272 4.88707 12.5714 4.57147 12.5714Z" fill="#9E9E9E"/>
<path d="M8.57147 12.5714H7.42862C7.11302 12.5714 6.85718 12.8272 6.85718 13.1428C6.85718 13.4585 7.11302 13.7143 7.42862 13.7143H8.57147C8.88707 13.7143 9.14291 13.4585 9.14291 13.1428C9.14291 12.8272 8.88707 12.5714 8.57147 12.5714Z" fill="#9E9E9E"/>
<path d="M12.5715 12.5714H11.4286C11.113 12.5714 10.8572 12.8272 10.8572 13.1428C10.8572 13.4585 11.113 13.7143 11.4286 13.7143H12.5715C12.8871 13.7143 13.1429 13.4585 13.1429 13.1428C13.1429 12.8272 12.887 12.5714 12.5715 12.5714Z" fill="#9E9E9E"/>
</svg>
