<svg width="40" height="36" viewBox="0 0 40 36" fill="none" xmlns="http://www.w3.org/2000/svg">
<path d="M38.4381 7.56236C37.3963 6.52077 36.1396 5.99984 34.6673 5.99984H30.0006L28.9383 3.16667C28.6743 2.48622 28.1919 1.89932 27.4901 1.40604C26.7887 0.912974 26.07 0.66626 25.3338 0.66626H14.6668C13.9307 0.66626 13.2119 0.912974 12.5104 1.40604C11.8089 1.89932 11.3264 2.48622 11.0625 3.16667L10.0001 5.99984H5.33336C3.86088 5.99984 2.60418 6.52077 1.56238 7.56236C0.520792 8.60401 0 9.86086 0 11.3332V30.0001C0 31.4725 0.520792 32.7295 1.56238 33.7708C2.60418 34.8126 3.86095 35.3336 5.33336 35.3336H34.6668C36.1391 35.3336 37.3957 34.8126 38.4376 33.7708C39.4791 32.7295 40 31.4725 40 30.0001V11.3332C40.0003 9.86086 39.4794 8.60401 38.4381 7.56236ZM26.5939 27.2607C24.7675 29.0871 22.5698 30.0006 20.0001 30.0006C17.4304 30.0006 15.2329 29.0871 13.4063 27.2607C11.5798 25.4345 10.6667 23.2363 10.6667 20.6672C10.6667 18.0973 11.5801 15.8998 13.4063 14.0732C15.2326 12.2467 17.4305 11.3336 20.0001 11.3336C22.5697 11.3336 24.7675 12.2469 26.5939 14.0732C28.4204 15.8996 29.3336 18.0973 29.3336 20.6672C29.3336 23.2363 28.4204 25.4343 26.5939 27.2607Z" fill="#6A7D82"/>
<path d="M20.0002 14.6664C18.3474 14.6664 16.9342 15.2532 15.7605 16.427C14.5868 17.6007 14 19.0137 14 20.6669C14 22.3195 14.5868 23.7327 15.7605 24.9063C16.9342 26.0798 18.3473 26.6666 20.0002 26.6666C21.6529 26.6666 23.0663 26.0798 24.2399 24.9063C25.4136 23.7327 26.0005 22.3195 26.0005 20.6669C26.0005 19.0138 25.4136 17.6007 24.2399 16.427C23.0663 15.2533 21.6529 14.6664 20.0002 14.6664Z" fill="#6A7D82"/>
</svg>
