<svg width="16" height="16" viewBox="0 0 16 16" fill="none" xmlns="http://www.w3.org/2000/svg">
<path d="M8.07196 1.87661C8.07626 1.87661 8.07912 1.87661 8.07912 1.87661C8.08413 1.87661 8.08413 1.87661 8.08699 1.87661C8.08842 1.87661 8.092 1.87661 8.09343 1.87661C8.09343 1.87661 8.09343 1.87661 8.09629 1.87661C8.10988 1.87518 8.1156 1.87661 8.12419 1.87661C9.70741 1.87661 11.2484 2.50332 12.3845 3.60792L13.6422 2.33734C13.7002 2.27725 13.7917 2.25865 13.8669 2.29084C13.9448 2.32232 13.9999 2.39958 13.9999 2.48472L13.7896 6.82444H9.71242C9.71027 6.82444 9.70455 6.82444 9.70097 6.82444C9.58793 6.82444 9.49278 6.73072 9.49278 6.61268C9.49278 6.53685 9.53499 6.46888 9.59724 6.43239L10.8349 5.1797C10.1009 4.47286 9.14652 4.08582 8.09343 4.08582C5.95218 4.09799 4.20656 5.85291 4.20656 8.02778C4.22301 10.1583 5.96434 11.891 8.12777 11.9068C9.53857 11.8309 10.8678 10.9925 11.5038 9.60241L13.5091 10.5274L13.4955 10.5553C12.1219 13.2117 9.95709 14.3306 7.63484 14.0924C4.50489 13.8434 2.02024 11.2214 1.99878 7.99701C1.99806 4.64886 4.72023 1.90594 8.07196 1.87661Z" fill="white"/>
</svg>
