<svg width="18" height="18" viewBox="0 0 18 18" fill="none" xmlns="http://www.w3.org/2000/svg">
<g opacity="0.6">
<path d="M11.71 12.4202H10.8888L7.58632 7.61024V12.4202H6.7652V6.37091H7.58632L10.8888 11.1722V6.37091H11.71V12.4202Z" fill="#78787A"/>
<rect x="5.34595" y="7.95648" width="7.96706" height="0.695652" rx="0.347826" fill="#78787A"/>
<rect width="7.96706" height="0.695652" rx="0.347826" transform="matrix(1 0 0 -1 5.34595 10.0434)" fill="#78787A"/>
<path d="M15.2535 3.30706C13.6708 1.78692 11.5666 0.95 9.32919 0.95C7.09176 0.95 4.9876 1.78692 3.40491 3.30706C1.82218 4.82727 0.95 6.8492 0.95 9C0.95 11.1508 1.82218 13.1727 3.40491 14.6929C4.9876 16.2131 7.09176 17.05 9.32919 17.05C11.5666 17.05 13.6708 16.2131 15.2535 14.6929C16.8362 13.1727 17.7084 11.1508 17.7084 9C17.7084 6.8492 16.8362 4.82727 15.2535 3.30706ZM9.32919 16.0125C5.30036 16.0125 2.02608 12.8648 2.02608 9C2.02608 5.13521 5.30036 1.9875 9.32919 1.9875C13.358 1.9875 16.6323 5.13521 16.6323 9C16.6323 12.8648 13.358 16.0125 9.32919 16.0125Z" fill="#78787A" stroke="white" stroke-width="0.1"/>
</g>
</svg>
