<svg width="47" height="46" viewBox="0 0 47 46" fill="none" xmlns="http://www.w3.org/2000/svg">
<path d="M37.8329 30.3961C36.9841 31.1494 35.9114 31.5647 34.8201 31.5647H33.8034H30.147H28.4121V36.2484C28.4121 38.4889 27.7685 40.121 26.4907 41.0964C24.476 42.6222 21.743 41.7627 21.6218 41.7241C21.1554 41.5696 20.8383 41.1254 20.8383 40.6232V34.9737C20.8383 33.2547 20.0454 31.7964 18.4691 30.6279C17.2752 29.7394 16.0533 29.3338 15.8947 29.2856L15.7828 29.2566C15.363 29.7491 14.7474 30.0581 14.0572 30.0581H9.80388C8.53535 30.0581 7.5 28.9862 7.5 27.6728V13.2255C7.5 11.9121 8.53535 10.8402 9.80388 10.8402H14.0759C14.6355 10.8402 15.1578 11.0526 15.5496 11.4003C16.4077 10.5312 17.5736 10 18.8328 10H23.0768H23.5152H32.1991C33.5422 10 34.7268 10.338 35.6316 10.9657C36.7882 11.7769 37.5064 13.0614 37.7116 14.7031L39.4372 25.8089C39.7077 27.5279 39.0921 29.2856 37.8329 30.3961ZM14.1411 13.2255C14.1411 13.1869 14.1132 13.1579 14.0759 13.1579H9.80388C9.76657 13.1579 9.73859 13.1869 9.73859 13.2255V27.6728C9.73859 27.7114 9.76657 27.7404 9.80388 27.7404H14.0759C14.1132 27.7404 14.1411 27.7114 14.1411 27.6728V13.2255ZM37.2266 26.1663L35.501 15.0411C35.501 15.0314 35.501 15.0121 35.4917 14.9928C35.417 14.3265 35.1745 12.3081 32.1991 12.3081H23.5152H23.0768H18.8328C17.6389 12.3081 16.5943 13.2352 16.4077 14.4617C16.3984 14.5099 16.3891 14.5582 16.3797 14.5969V27.0161L16.445 27.0354C16.4637 27.0354 16.473 27.0451 16.4917 27.0451C16.557 27.0644 18.1426 27.5279 19.719 28.6965C21.9109 30.3092 23.0768 32.4821 23.0768 34.9737V39.6671C23.6924 39.7347 24.5412 39.7057 25.1662 39.2325C25.8378 38.7207 26.1735 37.7163 26.1735 36.2581V30.4155C26.1735 29.7781 26.6772 29.2566 27.2928 29.2566H30.147H33.8034H34.8201C35.3797 29.2566 35.9301 29.0345 36.3778 28.6482C37.0494 28.0494 37.3665 27.103 37.2266 26.1663Z" fill="#097F8D"/>
</svg>
