<svg width="16" height="10" viewBox="0 0 16 10" fill="none" xmlns="http://www.w3.org/2000/svg">
<path d="M15.8705 4.62934C13.4539 1.65751 10.8445 0.148738 8.10784 0.148738C7.02361 0.148738 5.92632 0.390404 4.84209 0.863937C3.98973 1.2395 3.1439 1.75875 2.33073 2.40863C0.955851 3.50919 0.145946 4.60648 0.113289 4.6522C-0.0434668 4.86774 -0.0369353 5.16166 0.129618 5.37067C2.543 8.34576 5.1556 9.85127 7.8923 9.85127C8.97652 9.85127 10.0738 9.6096 11.158 9.13607C12.0104 8.76051 12.8562 8.24126 13.6694 7.59137C15.0443 6.49082 15.8542 5.39353 15.8868 5.34781C16.0436 5.13227 16.0371 4.83835 15.8705 4.62934ZM12.9085 6.69329C11.772 7.5979 9.98237 8.6756 7.8923 8.6756C5.63567 8.6756 3.43455 7.43788 1.34448 4.99511C1.67432 4.60648 2.27848 3.9566 3.08838 3.30998C4.22486 2.40537 6.01449 1.32767 8.10457 1.32767C10.3612 1.32767 12.5623 2.56539 14.6524 5.00817C14.3226 5.39679 13.7184 6.04994 12.9085 6.69329Z" fill="#9E9E9E"/>
<path d="M10.1652 4.4138C9.84192 4.4138 9.5774 4.67832 9.5774 5.00163C9.5774 5.87359 8.86873 6.58225 7.99677 6.58225C7.12482 6.58225 6.41615 5.87359 6.41615 5.00163C6.41615 4.12968 7.12482 3.42101 7.99677 3.42101C8.32008 3.42101 8.58461 3.15649 8.58461 2.83318C8.58461 2.50987 8.32008 2.24534 7.99677 2.24534C6.47493 2.24534 5.24048 3.48306 5.24048 5.00163C5.24048 6.5202 6.47493 7.75792 7.99677 7.75792C9.51861 7.75792 10.7531 6.5202 10.7531 5.00163C10.7531 4.67832 10.4885 4.4138 10.1652 4.4138Z" fill="#9E9E9E"/>
</svg>
