<svg width="16" height="16" viewBox="0 0 16 16" fill="none" xmlns="http://www.w3.org/2000/svg">
<g clip-path="url(#clip0_2_54)">
<path d="M15.8705 7.62934C13.4539 4.65751 10.8445 3.14874 8.10784 3.14874C7.02361 3.14874 5.92632 3.3904 4.84209 3.86394C3.98973 4.2395 3.1439 4.75875 2.33073 5.40863C0.955851 6.50919 0.145946 7.60648 0.113289 7.6522C-0.0434668 7.86774 -0.0369353 8.16166 0.129618 8.37067C2.543 11.3458 5.1556 12.8513 7.8923 12.8513C8.97652 12.8513 10.0738 12.6096 11.158 12.1361C12.0104 11.7605 12.8562 11.2413 13.6694 10.5914C15.0443 9.49082 15.8542 8.39353 15.8868 8.34781C16.0436 8.13227 16.0371 7.83835 15.8705 7.62934ZM12.9085 9.69329C11.772 10.5979 9.98237 11.6756 7.8923 11.6756C5.63567 11.6756 3.43455 10.4379 1.34448 7.99511C1.67432 7.60648 2.27848 6.9566 3.08838 6.30998C4.22486 5.40537 6.01449 4.32767 8.10457 4.32767C10.3612 4.32767 12.5623 5.56539 14.6524 8.00817C14.3226 8.39679 13.7184 9.04994 12.9085 9.69329Z" fill="#9E9E9E"/>
<path d="M10.1652 7.4138C9.84192 7.4138 9.5774 7.67832 9.5774 8.00163C9.5774 8.87359 8.86873 9.58225 7.99677 9.58225C7.12482 9.58225 6.41615 8.87359 6.41615 8.00163C6.41615 7.12968 7.12482 6.42101 7.99677 6.42101C8.32008 6.42101 8.58461 6.15649 8.58461 5.83318C8.58461 5.50987 8.32008 5.24534 7.99677 5.24534C6.47493 5.24534 5.24048 6.48306 5.24048 8.00163C5.24048 9.5202 6.47493 10.7579 7.99677 10.7579C9.51861 10.7579 10.7531 9.5202 10.7531 8.00163C10.7531 7.67832 10.4885 7.4138 10.1652 7.4138Z" fill="#9E9E9E"/>
<line x1="0.672535" y1="14.6222" x2="15.6725" y2="1.62216" stroke="#9E9E9E"/>
</g>
<defs>
<clipPath id="clip0_2_54">
<rect width="16" height="16" fill="white"/>
</clipPath>
</defs>
</svg>
