<svg width="24" height="24" viewBox="0 0 24 24" fill="none" xmlns="http://www.w3.org/2000/svg">
<g clip-path="url(#clip0_2_71)">
<path d="M9.66685 13.1764C9.63764 12.9572 9.43442 12.8027 9.2168 12.8339C8.99797 12.8631 8.84476 13.0647 8.87435 13.284C9.2972 16.4035 8.17148 19.555 5.86364 21.714C5.70242 21.8648 5.69403 22.1181 5.84522 22.2797C5.92365 22.3637 6.03002 22.406 6.13723 22.406C6.23526 22.406 6.33323 22.3705 6.41044 22.298C8.90716 19.9622 10.1245 16.5523 9.66685 13.1764Z" fill="white" stroke="white" stroke-width="0.5"/>
<path d="M3.8699 13.6436C3.86592 13.6248 3.86071 13.6068 3.85429 13.5888C3.77347 13.1736 3.72429 12.7515 3.70667 12.3331C3.69785 12.1123 3.50907 11.9423 3.29061 11.9499C3.06981 11.9587 2.89818 12.1451 2.90737 12.3659C2.92739 12.8452 2.9858 13.3284 3.08096 13.8029C3.08457 13.8213 3.08978 13.8393 3.09615 13.8569C3.35699 15.2526 2.84891 16.6848 1.76163 17.6057C1.59319 17.7489 1.572 18.0013 1.71484 18.1697C1.79445 18.2633 1.90686 18.3113 2.02045 18.3113C2.11205 18.3113 2.20366 18.2801 2.2789 18.2161C3.60264 17.0948 4.21231 15.3426 3.8699 13.6436Z" fill="white" stroke="white" stroke-width="0.5"/>
<path d="M6.11856 16.8296C5.91252 16.7495 5.68052 16.8516 5.60049 17.0576C5.17164 18.1621 4.4608 19.1422 3.54547 19.8919C3.37464 20.0315 3.34947 20.2839 3.48945 20.4547C3.56868 20.5512 3.68349 20.6011 3.79909 20.6011C3.88831 20.6011 3.97831 20.5715 4.05271 20.5107C5.07403 19.6738 5.86728 18.5801 6.34654 17.3472C6.42656 17.1416 6.32417 16.9095 6.11856 16.8296Z" fill="white" stroke="white" stroke-width="0.5"/>
<path d="M2.40013 5.4912C2.47134 5.54319 2.55376 5.56841 2.63575 5.56841C2.75895 5.56841 2.88055 5.5116 2.95898 5.40401C4.61196 3.13939 7.03658 1.5872 9.78644 1.03276C12.2263 0.540288 14.6945 0.858741 16.9232 1.95287C17.122 2.05089 17.3616 1.96805 17.4584 1.77004C17.556 1.57164 17.4741 1.33199 17.2756 1.23476C14.8878 0.0622557 12.2431 -0.27856 9.62846 0.248274C6.68175 0.842333 4.08391 2.50572 2.31294 4.93235C2.18252 5.11077 2.22171 5.36121 2.40013 5.4912Z" fill="white" stroke="white" stroke-width="0.5"/>
<path d="M1.03323 14.2169C1.03121 14.2073 1.02484 14.2001 1.02203 14.1905C0.523976 11.691 0.872433 9.17398 2.03172 6.90937C2.13251 6.71294 2.05493 6.47175 1.85812 6.37091C1.66132 6.26969 1.4205 6.34812 1.31966 6.54492C0.0727127 8.97995 -0.300121 11.6879 0.241948 14.3753C0.245136 14.3901 0.253528 14.4021 0.257934 14.4161C0.290328 14.5741 0.324738 14.7305 0.362757 14.8858C0.407949 15.0682 0.571184 15.1898 0.751202 15.1898C0.782799 15.1898 0.814818 15.1862 0.847212 15.1786C1.06164 15.1254 1.19286 14.9085 1.14002 14.6941C1.10121 14.5369 1.0652 14.3777 1.03323 14.2169Z" fill="white" stroke="white" stroke-width="0.5"/>
<path d="M10.2005 3.08736C6.49419 3.83462 3.6807 6.72415 3.03301 10.4485C2.99542 10.6661 3.14102 10.8733 3.35864 10.9113C3.57907 10.9489 3.78346 10.8029 3.82148 10.5857C4.41193 7.18858 6.97822 4.55352 10.3589 3.87142C14.8442 2.96852 19.2278 5.88041 20.1315 10.3649C20.1339 10.3777 20.1371 10.3897 20.1407 10.4017C20.2131 10.7645 20.2755 11.1238 20.3263 11.4702C20.3555 11.669 20.5264 11.8118 20.7216 11.8118C20.7412 11.8118 20.7607 11.8106 20.7803 11.8074C20.9988 11.7754 21.15 11.5722 21.118 11.3538C21.0635 10.9821 20.9959 10.5965 20.9179 10.2072C20.9151 10.1944 20.9119 10.1812 20.908 10.1688C19.8999 5.27322 15.1046 2.0989 10.2005 3.08736Z" fill="white" stroke="white" stroke-width="0.5"/>
<path d="M15.2382 11.3514C15.0638 10.4861 14.563 9.74042 13.8277 9.25198C13.0924 8.76312 12.2107 8.59112 11.3458 8.76471C10.0469 9.02672 9.03319 10.0337 8.76275 11.3302C8.71755 11.5466 8.85636 11.7586 9.07239 11.8038C9.28963 11.8486 9.50082 11.7102 9.54601 11.4938C9.75083 10.5109 10.5193 9.74759 11.5038 9.54915C12.1599 9.41756 12.8275 9.54793 13.3848 9.918C13.9288 10.2796 14.3033 10.8269 14.4437 11.463C14.4453 11.479 14.4473 11.495 14.4505 11.511C14.6533 12.5147 14.7573 13.5392 14.7602 14.5557C14.761 14.7765 14.9398 14.9549 15.1602 14.9549H15.161C15.3822 14.9545 15.561 14.7749 15.5602 14.5541C15.5574 13.5019 15.4514 12.4419 15.245 11.403C15.2438 11.3858 15.2414 11.3686 15.2382 11.3514Z" fill="white" stroke="white" stroke-width="0.5"/>
<path d="M12.3935 11.9254C12.3499 11.709 12.1391 11.5698 11.9223 11.6122C11.7059 11.6558 11.5655 11.867 11.609 12.0834C12.3963 15.9882 11.3378 19.9458 8.70518 22.9421C8.55957 23.1081 8.57598 23.3609 8.74156 23.507C8.81755 23.5734 8.91197 23.6062 9.00558 23.6062C9.11678 23.6062 9.22719 23.5606 9.30641 23.4705C12.1051 20.2847 13.2304 16.0771 12.3935 11.9254Z" fill="white" stroke="white" stroke-width="0.5"/>
<path d="M23.7611 9.6332C23.7587 9.6212 23.7507 9.61201 23.7471 9.60001C23.1311 6.58729 21.4073 3.95584 18.8894 2.18885C18.7086 2.06125 18.4586 2.10564 18.3322 2.28646C18.2054 2.46727 18.249 2.71691 18.4298 2.84372C20.7884 4.49908 22.4009 6.96692 22.9706 9.79241C22.9726 9.80319 22.979 9.81163 22.9818 9.82199C23.1402 10.6181 23.213 11.4281 23.1979 12.2306C23.1939 12.4514 23.3695 12.6339 23.5903 12.6382H23.5983C23.8155 12.6382 23.9939 12.4638 23.998 12.2458C24.0143 11.3746 23.9347 10.4961 23.7611 9.6332Z" fill="white" stroke="white" stroke-width="0.5"/>
<path d="M18.0773 10.7793C17.7501 9.15518 16.81 7.75624 15.4303 6.83975C14.0506 5.92287 12.3968 5.59922 10.773 5.92606C7.4215 6.60174 5.24408 9.87886 5.92014 13.2304C5.92492 13.254 5.93172 13.2764 5.94015 13.298C6.06856 13.9664 6.09697 14.6441 6.02458 15.3138C6.001 15.5334 6.15979 15.7306 6.37984 15.7546C6.59464 15.7762 6.79669 15.6194 6.82027 15.3994C6.90348 14.6249 6.86668 13.8416 6.71104 13.0707C6.70626 13.0475 6.69946 13.0251 6.69103 13.0039C6.14535 10.1084 8.03474 7.29453 10.9311 6.7105C12.3452 6.42528 13.7861 6.70769 14.9875 7.50619C16.182 8.29986 16.9981 9.50879 17.2881 10.9125C17.2893 10.9209 17.2905 10.9297 17.2921 10.9381C17.7369 13.1419 17.7785 15.3757 17.4161 17.5764C17.3804 17.7948 17.5281 18.0004 17.7461 18.0364C17.7681 18.0396 17.7897 18.0416 17.8113 18.0416C18.0037 18.0416 18.1734 17.9024 18.2058 17.7064C18.5822 15.4181 18.5406 13.0967 18.0818 10.8057C18.0805 10.797 18.0794 10.7881 18.0773 10.7793Z" fill="white" stroke="white" stroke-width="0.5"/>
<path d="M20.89 12.8383C20.6696 12.8523 20.502 13.0423 20.516 13.2628C20.6604 15.5562 20.4336 17.846 19.8415 20.0683C19.7847 20.2815 19.9115 20.5007 20.1251 20.5575C20.1595 20.5667 20.1943 20.5715 20.2284 20.5715C20.4052 20.5715 20.5668 20.4531 20.6148 20.2739C21.2292 17.968 21.4645 15.5922 21.3145 13.2124C21.3009 12.9919 21.1157 12.8244 20.89 12.8383Z" fill="white" stroke="white" stroke-width="0.5"/>
<path d="M17.5244 19.0598C17.3096 19.0018 17.0916 19.129 17.0348 19.3426C16.73 20.4799 16.3143 21.5932 15.7982 22.6517C15.7014 22.8506 15.7842 23.0898 15.9827 23.1866C16.0395 23.2142 16.0987 23.227 16.1579 23.227C16.3059 23.227 16.4483 23.1446 16.5175 23.0022C17.056 21.8976 17.4896 20.736 17.8072 19.5494C17.8649 19.3362 17.7381 19.1166 17.5244 19.0598Z" fill="white" stroke="white" stroke-width="0.5"/>
<path d="M15.1042 15.9959C14.8862 15.9711 14.6862 16.1283 14.6614 16.3479C14.3758 18.8493 13.4693 21.2768 12.0391 23.367C11.9144 23.549 11.9608 23.7978 12.1432 23.9226C12.2124 23.9702 12.2908 23.9926 12.3688 23.9926C12.4964 23.9926 12.622 23.9318 12.6993 23.8186C14.203 21.6212 15.1563 19.0693 15.4563 16.4387C15.4811 16.2191 15.3234 16.0207 15.1042 15.9959Z" fill="white" stroke="white" stroke-width="0.5"/>
</g>
<defs>
<clipPath id="clip0_2_71">
<rect width="24" height="24" fill="white"/>
</clipPath>
</defs>
</svg>
