<svg width="32" height="32" viewBox="0 0 32 32" fill="none" xmlns="http://www.w3.org/2000/svg">
<rect width="32" height="32" rx="5" fill="#82D26E"/>
<g clip-path="url(#clip0_0_1)">
<path d="M22.8596 15.1861L16.6767 10.0906C16.562 9.99592 16.4013 9.97584 16.2665 10.039C16.1316 10.1021 16.0455 10.2398 16.0455 10.389V13.0745C13.0445 13.1835 10.9816 14.2422 9.90853 16.2247C8.98468 17.9347 8.99329 19.9603 9.0019 21.3002C9.0019 21.4092 9.0019 21.5125 9.0019 21.61C9.0019 21.7851 9.11953 21.94 9.29168 21.9859C9.32324 21.9945 9.35767 21.9974 9.38923 21.9974C9.52694 21.9974 9.65605 21.9256 9.72491 21.8023C11.8194 18.1097 13.5437 17.9319 16.0427 17.9232V20.6001C16.0427 20.7493 16.1287 20.887 16.2665 20.9501C16.4042 21.0133 16.562 20.9932 16.6796 20.8985L22.8596 15.7858C22.9486 15.7112 23.0002 15.6021 23.0002 15.4874C23.0002 15.3726 22.9486 15.2607 22.8596 15.1861ZM16.8202 19.7767V17.5359C16.8202 17.4326 16.78 17.3351 16.7054 17.2634C16.6337 17.1916 16.5333 17.1486 16.4329 17.1486C14.8721 17.1486 13.6757 17.1916 12.5137 17.7339C11.5095 18.2015 10.6402 18.9963 9.78229 20.2443C9.81672 19.1053 9.96592 17.7454 10.5885 16.5949C11.5755 14.7701 13.4863 13.8663 16.4329 13.8405C16.6452 13.8376 16.8173 13.6655 16.8173 13.4532V11.2096L22.0018 15.4874L16.8202 19.7767Z" fill="white"/>
</g>
<defs>
<clipPath id="clip0_0_1">
<rect width="14" height="14" fill="white" transform="translate(9 9)"/>
</clipPath>
</defs>
</svg>
