<svg width="18" height="18" viewBox="0 0 18 18" fill="none" xmlns="http://www.w3.org/2000/svg">
<g opacity="0.6">
<path d="M7.07805 4.59661C7.07805 6.59719 8.70873 8.22467 10.713 8.22467C12.7172 8.22467 14.3479 6.59719 14.3479 4.59661C14.3479 2.59603 12.7172 0.968677 10.713 0.968677C8.70873 0.968677 7.07805 2.59603 7.07805 4.59661ZM13.5962 4.59661C13.5962 6.18312 12.3028 7.47408 10.713 7.47408C9.12314 7.47408 7.82979 6.18312 7.82979 4.59661C7.82979 3.01023 9.12314 1.71927 10.713 1.71927C12.3028 1.71927 13.5962 3.01023 13.5962 4.59661Z" fill="#78787A" stroke="#78787A" stroke-width="0.1"/>
<path d="M6.82923 16.0653L6.82896 16.0655L5.2489 17.6191C5.10128 17.7643 4.86412 17.7626 4.71842 17.6161L1.05913 13.9361L1.05912 13.9361C0.913387 13.7894 0.913667 13.5529 1.05972 13.4067L1.05972 13.4067L2.61011 11.8547L2.61016 11.8547C2.84808 11.6172 3.17557 11.5172 3.49041 11.5652C4.23967 10.2111 5.61904 9.49076 7.19223 9.49076C7.76155 9.49076 8.31365 9.60004 8.83424 9.81599H12.4585C12.8547 9.81599 13.2225 9.99147 13.4743 10.276L15.358 8.34363C15.8412 7.78563 16.6895 7.71759 17.2559 8.19407L17.256 8.19411C17.8264 8.67536 17.8985 9.52937 17.4169 10.0983C16.1367 11.6254 15.4131 12.4891 15.0034 12.9781C14.9126 13.0865 14.8372 13.1764 14.7746 13.2512C14.4679 13.6173 14.4672 13.6178 14.4608 13.6233C14.46 13.6239 14.4591 13.6247 14.4577 13.6261C14.4577 13.6261 14.4577 13.6261 14.4577 13.6261L14.4228 13.5902C13.8721 14.1251 13.1456 14.4197 12.377 14.4197H8.04441C7.78972 14.4197 7.54879 14.517 7.3658 14.6934L6.82923 16.0653ZM6.82923 16.0653C7.10377 15.7913 7.1923 15.3898 7.08314 15.0348L6.82923 16.0653ZM16.8416 9.61521L16.8415 9.6154L13.9201 13.101C13.5028 13.4999 12.9556 13.7193 12.377 13.7193H8.04441C7.60694 13.7193 7.19261 13.8863 6.87841 14.1893C6.87841 14.1893 6.8784 14.1893 6.87839 14.1893L6.63675 14.422L4.14466 11.9349C4.73601 10.8559 5.82941 10.2412 7.19211 10.2412C7.68447 10.2412 8.16028 10.3401 8.60686 10.5351C8.65444 10.5559 8.70569 10.5666 8.75752 10.5666H12.4585C12.7848 10.5666 13.0603 10.8324 13.0603 11.167C13.0603 11.4981 12.7904 11.7676 12.4585 11.7676H9.79944C9.59198 11.7676 9.42357 11.9356 9.42357 12.1429C9.42357 12.3503 9.59199 12.5181 9.79944 12.5181H12.4585C13.2048 12.5181 13.8121 11.9122 13.8121 11.167C13.8121 11.1157 13.8089 11.065 13.8032 11.0147L15.5468 9.22615L15.8438 8.9212C15.8971 8.86637 15.9179 8.84479 15.9226 8.83928C16.1371 8.58661 16.518 8.5546 16.7712 8.76765C17.0245 8.9815 17.0567 9.36115 16.8416 9.61521ZM3.48401 12.3466L3.48428 12.3467C3.4906 12.3506 3.49284 12.3518 3.4941 12.3524C3.49533 12.3531 3.49563 12.3532 3.49786 12.3549C3.50183 12.3578 3.50961 12.3644 3.52886 12.3827C3.5668 12.4188 3.6428 12.4943 3.80934 12.6607C3.87499 12.7262 3.95463 12.8059 4.05143 12.9027C4.44506 13.2963 5.12258 13.9739 6.29776 15.1452C6.40786 15.2551 6.40195 15.4304 6.29965 15.5326C6.29961 15.5327 6.29956 15.5327 6.29952 15.5328L4.98821 16.8221L1.85614 13.6723L3.14204 12.3852C3.14204 12.3852 3.14205 12.3852 3.14205 12.3851C3.23303 12.2944 3.37255 12.2778 3.48401 12.3466Z" fill="#78787A" stroke="#78787A" stroke-width="0.1"/>
<path d="M9.68735 5.77721C9.85756 5.97925 10.0576 6.12474 10.2718 6.20399V6.54823C10.2718 6.75566 10.4402 6.92346 10.6477 6.92346C10.8551 6.92346 11.0235 6.75566 11.0235 6.54823V6.20176C11.4047 6.05167 11.6754 5.6806 11.6754 5.24717C11.6754 4.68135 11.2144 4.22135 10.6477 4.22135C10.4955 4.22135 10.3718 4.09774 10.3718 3.94612C10.3718 3.79447 10.4955 3.67076 10.6477 3.67076C10.7459 3.67076 10.856 3.72103 10.9654 3.82677L10.9654 3.82678C11.1146 3.97087 11.3525 3.9669 11.4969 3.81813L11.4969 3.81811C11.6413 3.66913 11.6374 3.43154 11.4883 3.28741L11.4882 3.28739C11.3298 3.13439 11.1703 3.0422 11.0235 2.98841V2.64506C11.0235 2.43766 10.8551 2.2697 10.6477 2.2697C10.4402 2.2697 10.2718 2.43766 10.2718 2.64506V2.99152C9.89067 3.14149 9.61994 3.51258 9.61994 3.94612C9.61994 4.51181 10.081 4.97194 10.6477 4.97194C10.7998 4.97194 10.9235 5.09555 10.9235 5.24717C10.9235 5.39879 10.7998 5.5224 10.6477 5.5224C10.5293 5.5224 10.3916 5.44721 10.2628 5.29416L10.2628 5.29413C10.1291 5.13551 9.89208 5.11517 9.7332 5.24838L9.73318 5.2484C9.57424 5.38181 9.55363 5.61852 9.68735 5.77721ZM9.68735 5.77721L9.72559 5.745M9.68735 5.77721C9.68735 5.77721 9.68735 5.77722 9.68736 5.77722L9.72559 5.745M9.72559 5.745C9.89979 5.95178 10.1047 6.0959 10.3218 6.1686M9.72559 5.745C9.60971 5.60748 9.62754 5.40235 9.76532 5.2867L10.3218 6.1686M10.3218 6.1686V6.54823C10.3218 6.72794 10.4677 6.87346 10.6477 6.87346C10.8276 6.87346 10.9735 6.72794 10.9735 6.54823V6.16707L10.3218 6.1686Z" fill="#78787A" stroke="#78787A" stroke-width="0.1"/>
</g>
</svg>
