<svg width="24" height="22" viewBox="0 0 24 22" fill="none" xmlns="http://www.w3.org/2000/svg">
<path d="M13.1063 0.114311C7.10368 0.114311 2.22018 4.99743 2.22094 10.9691C2.2164 11.0639 2.16162 12.6448 2.61162 14.3473L1.14524 13.4927C0.781013 13.2811 0.317033 13.4039 0.103179 13.7673C-0.107652 14.1301 0.0147662 14.5967 0.377864 14.8083L3.81426 16.8115C3.82144 16.8153 3.82862 16.8165 3.83542 16.8199C3.87207 16.8395 3.90948 16.8539 3.94915 16.8675C3.97598 16.8769 4.00205 16.8867 4.02887 16.8932C4.06174 16.9003 4.09424 16.9026 4.12786 16.9056C4.15129 16.9079 4.17472 16.9151 4.19814 16.9151C4.21137 16.9151 4.22383 16.9105 4.23744 16.9098C4.25028 16.9094 4.26124 16.9124 4.27409 16.9113C4.29298 16.9094 4.30998 16.9015 4.32849 16.8984C4.36514 16.892 4.3999 16.8841 4.43504 16.8728C4.46451 16.8629 4.49361 16.8512 4.52194 16.8376C4.55368 16.8225 4.58353 16.8059 4.613 16.7862C4.63983 16.7688 4.66552 16.75 4.6897 16.7296C4.71653 16.7069 4.74033 16.6823 4.76414 16.6559C4.78643 16.6313 4.8057 16.6056 4.82421 16.5784C4.83441 16.5633 4.84802 16.5523 4.85708 16.5369C4.86388 16.5251 4.86388 16.5115 4.86955 16.4998C4.87975 16.479 4.89562 16.4609 4.90469 16.4386L6.27169 13.054C6.42925 12.6641 6.24109 12.2201 5.85154 12.0625C5.46124 11.9061 5.01766 12.0935 4.86011 12.4835L4.15809 14.2215C3.68958 12.6546 3.74285 11.0447 3.74436 11.0005C3.74436 5.83774 7.94474 1.63774 13.1067 1.63774C18.269 1.63774 22.469 5.83774 22.469 11.0005C22.469 16.1624 18.269 20.3624 13.1067 20.3624C12.6858 20.3624 12.345 20.7036 12.345 21.1241C12.345 21.5447 12.6854 21.8859 13.1067 21.8859C19.1097 21.8859 23.9929 17.0027 23.9929 11.0005C23.9921 4.99743 19.109 0.114311 13.1063 0.114311Z" fill="#097F8D"/>
<path d="M12.8146 12.4648C12.8913 12.4965 12.9722 12.5079 13.0541 12.5135C13.0711 12.5147 13.0878 12.5237 13.1048 12.5237C13.1939 12.5237 13.2805 12.5033 13.3632 12.4731C13.3863 12.4648 13.4078 12.4527 13.4301 12.4418C13.4932 12.4115 13.5514 12.373 13.605 12.3258C13.6167 12.3156 13.6322 12.3118 13.6439 12.3001L18.3997 7.54428C18.6975 7.24655 18.6975 6.76481 18.3997 6.46707C18.1024 6.16934 17.6206 6.16934 17.3225 6.46707L12.9276 10.8617L8.98337 9.20977C8.59306 9.04692 8.14873 9.22979 7.98588 9.61821C7.82342 10.0062 8.00667 10.4525 8.39395 10.6149L12.8101 12.4641L12.8146 12.4648Z" fill="#097F8D"/>
</svg>
