<svg width="12" height="12" viewBox="0 0 12 12" fill="none" xmlns="http://www.w3.org/2000/svg">
<path d="M6.50401 0.621628C3.5252 0.621628 1.10177 3.04488 1.10214 6.00832C1.09989 6.05538 1.0727 6.83988 1.29602 7.68475L0.568328 7.26063C0.387578 7.15563 0.157328 7.21657 0.0512028 7.39694C-0.0534223 7.57694 0.00732774 7.8085 0.187515 7.9135L1.89283 8.90763C1.89639 8.9095 1.89995 8.91007 1.90333 8.91175C1.92152 8.9215 1.94008 8.92863 1.95977 8.93538C1.97308 8.94007 1.98602 8.94494 1.99933 8.94813C2.01564 8.95169 2.03177 8.95282 2.04845 8.95432C2.06008 8.95544 2.0717 8.959 2.08333 8.959C2.08989 8.959 2.09608 8.95675 2.10283 8.95638C2.1092 8.95619 2.11464 8.95769 2.12102 8.95713C2.13039 8.95619 2.13883 8.95225 2.14802 8.95075C2.1662 8.94757 2.18345 8.94363 2.20089 8.938C2.21552 8.93313 2.22995 8.92732 2.24402 8.92057C2.25977 8.91307 2.27458 8.90482 2.2892 8.89507C2.30252 8.88644 2.31527 8.87707 2.32727 8.86694C2.34058 8.85569 2.35239 8.8435 2.3642 8.83038C2.37527 8.81819 2.38483 8.80544 2.39402 8.79194C2.39908 8.78444 2.40583 8.779 2.41033 8.77132C2.4137 8.7655 2.4137 8.75875 2.41652 8.75294C2.42158 8.74263 2.42945 8.73363 2.43395 8.72257L3.11233 7.04294C3.19052 6.84944 3.09714 6.62913 2.90383 6.55094C2.71014 6.47332 2.49002 6.56632 2.41183 6.75982L2.06345 7.62232C1.83095 6.84475 1.85739 6.04582 1.85814 6.02388C1.85814 3.46188 3.94258 1.37763 6.5042 1.37763C9.06602 1.37763 11.1503 3.46188 11.1503 6.02388C11.1503 8.5855 9.06602 10.6698 6.5042 10.6698C6.29533 10.6698 6.1262 10.8391 6.1262 11.0478C6.1262 11.2564 6.29514 11.4258 6.5042 11.4258C9.4832 11.4258 11.9065 9.0025 11.9065 6.02388C11.9061 3.04488 9.48283 0.621628 6.50401 0.621628Z" fill="#6A7D82"/>
<path d="M6.35925 6.75051C6.39731 6.76626 6.43743 6.77188 6.47812 6.7747C6.48656 6.77526 6.49481 6.77976 6.50325 6.77976C6.5475 6.77976 6.59043 6.76963 6.6315 6.75463C6.64293 6.75051 6.65362 6.74451 6.66468 6.73907C6.696 6.72407 6.72487 6.70495 6.7515 6.68151C6.75731 6.67645 6.765 6.67457 6.77081 6.66876L9.13087 4.3087C9.27862 4.16095 9.27862 3.92188 9.13087 3.77413C8.98331 3.62638 8.74425 3.62638 8.59631 3.77413L6.41531 5.95495L4.458 5.1352C4.26431 5.05438 4.04381 5.14513 3.963 5.33788C3.88237 5.53045 3.97331 5.75188 4.1655 5.83251L6.357 6.75013C6.35775 6.75032 6.3585 6.75032 6.35925 6.75051Z" fill="#6A7D82"/>
</svg>
