<svg width="39" height="46" viewBox="0 0 39 46" fill="none" xmlns="http://www.w3.org/2000/svg">
<path d="M12.1592 18.7553C12.1592 18.1285 11.6464 17.6157 11.0196 17.6157H1.88418C1.25743 17.6157 0.744629 18.1285 0.744629 18.7553C0.744629 19.382 1.25743 19.8948 1.88418 19.8948H11.0196C11.6464 19.8948 12.1592 19.382 12.1592 18.7553Z" fill="#097F8D"/>
<path d="M37.1153 17.6157H27.9799C27.3531 17.6157 26.8403 18.1285 26.8403 18.7553C26.8403 19.382 27.3531 19.8948 27.9799 19.8948H37.1153C37.7421 19.8948 38.2549 19.382 38.2549 18.7553C38.2549 18.1285 37.7516 17.6157 37.1153 17.6157Z" fill="#097F8D"/>
<path d="M19.4999 11.4145C20.1267 11.4145 20.6395 10.9017 20.6395 10.275V1.13955C20.6395 0.512799 20.1267 0 19.4999 0C18.8732 0 18.3604 0.512799 18.3604 1.13955V10.275C18.3604 10.9017 18.8732 11.4145 19.4999 11.4145Z" fill="#097F8D"/>
<path d="M25.492 13.9025C25.7864 13.9025 26.0713 13.7886 26.2992 13.5701L32.7662 7.10317C33.2125 6.65684 33.2125 5.93512 32.7662 5.4888C32.3199 5.04247 31.5981 5.04247 31.1518 5.4888L24.6848 11.9558C24.2385 12.4021 24.2385 13.1238 24.6848 13.5701C24.9128 13.7886 25.2071 13.9025 25.492 13.9025Z" fill="#097F8D"/>
<path d="M12.7001 13.5701C12.9186 13.7886 13.2129 13.9025 13.5073 13.9025C13.8017 13.9025 14.0866 13.7886 14.3145 13.5701C14.7608 13.1238 14.7608 12.4021 14.3145 11.9558L7.84755 5.4888C7.40122 5.04247 6.67951 5.04247 6.23318 5.4888C5.78686 5.93512 5.78686 6.65684 6.23318 7.10317L12.7001 13.5701Z" fill="#097F8D"/>
<path d="M33.1934 25.9439C32.3293 25.2032 31.2372 24.7948 30.1261 24.7948H29.091H25.3685H23.6022V20.1891C23.6022 17.986 22.9469 16.3811 21.646 15.422C19.5948 13.9216 16.8123 14.7668 16.6889 14.8047C16.2141 14.9567 15.8912 15.3935 15.8912 15.8873V21.4426C15.8912 23.133 15.084 24.5669 13.4792 25.716C12.2636 26.5896 11.0196 26.9885 10.8582 27.036L10.7442 27.0644C10.3169 26.5801 9.69014 26.2762 8.98741 26.2762H4.65711C3.36561 26.2762 2.31152 27.3303 2.31152 28.6218V42.8283C2.31152 44.1198 3.36561 45.1739 4.65711 45.1739H9.0064C9.57618 45.1739 10.108 44.9649 10.5068 44.6231C11.3805 45.4777 12.5675 46 13.8495 46H18.1703H18.6166H27.4577C28.8251 46 30.0312 45.6677 30.9523 45.0504C32.1299 44.2527 32.8611 42.9897 33.07 41.3753L34.8268 30.4546C35.1022 28.7643 34.4754 27.036 33.1934 25.9439ZM9.07288 42.8283C9.07288 42.8663 9.04439 42.8947 9.0064 42.8947H4.65711C4.61912 42.8947 4.59063 42.8663 4.59063 42.8283V28.6218C4.59063 28.5838 4.61912 28.5554 4.65711 28.5554H9.0064C9.04439 28.5554 9.07288 28.5838 9.07288 28.6218V42.8283ZM32.5762 30.1033L30.8194 41.043C30.8194 41.0525 30.8194 41.0715 30.8099 41.0905C30.7339 41.7457 30.487 43.7304 27.4577 43.7304H18.6166H18.1703H13.8495C12.634 43.7304 11.5704 42.8188 11.3805 41.6127C11.371 41.5653 11.3615 41.5178 11.352 41.4798V29.2676L11.4185 29.2486C11.4375 29.2486 11.4469 29.2391 11.4659 29.2391C11.5324 29.2201 13.1468 28.7643 14.7517 27.6152C16.9833 26.0293 18.1703 23.8927 18.1703 21.4426V16.8274C18.7971 16.761 19.6612 16.7895 20.2975 17.2548C20.9812 17.7581 21.3231 18.7457 21.3231 20.1796V25.9249C21.3231 26.5516 21.8359 27.0644 22.4626 27.0644H25.3685H29.091H30.1261C30.6959 27.0644 31.2562 27.2829 31.712 27.6627C32.3957 28.2515 32.7186 29.1821 32.5762 30.1033Z" fill="#097F8D"/>
</svg>
