<svg width="13" height="15" viewBox="0 0 13 15" fill="none" xmlns="http://www.w3.org/2000/svg">
<path d="M6.50642 3.68209C5.36537 3.68209 4.43142 4.59192 4.43142 5.71671C4.43142 6.84149 5.36537 7.75132 6.50642 7.75132C7.64747 7.75132 8.58142 6.84149 8.58142 5.71671C8.58142 4.59192 7.64747 3.68209 6.50642 3.68209ZM6.50642 6.91286C5.82807 6.91286 5.28142 6.37315 5.28142 5.71671C5.28142 5.06026 5.82807 4.52055 6.50642 4.52055C7.18477 4.52055 7.73142 5.06026 7.73142 5.71671C7.73142 6.37315 7.18477 6.91286 6.50642 6.91286Z" fill="#097F8D" stroke="#097F8D" stroke-width="0.3"/>
<path d="M2.51142 2.32415C0.529601 4.09047 0.282311 7.40507 1.97712 9.42141L5.59234 14.0753C6.05276 14.6681 6.94834 14.668 7.40873 14.0753L11.0174 9.42933C12.7187 7.40523 12.4717 4.09062 10.4897 2.32416C9.42173 1.37216 8.00424 0.85 6.50056 0.85C4.99658 0.85 3.57939 1.37215 2.51142 2.32415ZM2.51142 2.32415L2.61122 2.43613M2.51142 2.32415L2.61122 2.43613M2.61122 2.43613C0.688637 4.14966 0.449713 7.37372 2.09379 9.32708M2.61122 2.43613C3.6501 1.51007 5.03116 1 6.50056 1C7.96967 1 9.35102 1.51007 10.3899 2.43613L2.09379 9.32708M2.09379 9.32708L5.71079 13.9833C6.11116 14.4987 6.88993 14.4987 7.29027 13.9833L10.9007 9.33501L2.09379 9.32708ZM10.3207 8.93955L10.3206 8.93948L10.317 8.9441L7.1718 12.993C6.83151 13.431 6.16959 13.431 5.82929 12.993L2.67776 8.93617L2.67785 8.9361L2.67408 8.93163C1.23544 7.22175 1.44185 4.4025 3.11688 2.90963L3.11689 2.90962C4.01825 2.10615 5.21919 1.66135 6.50056 1.66135C7.78192 1.66135 8.98287 2.10615 9.88453 2.90964C11.5594 4.40236 11.7661 7.22159 10.3207 8.93955Z" fill="#097F8D" stroke="#097F8D" stroke-width="0.3"/>
</svg>
