<svg width="18" height="21" viewBox="0 0 18 21" fill="none" xmlns="http://www.w3.org/2000/svg">
<path d="M8.86652 4.89575C7.27065 4.89575 5.96652 6.168 5.96652 7.73805C5.96652 9.30811 7.27065 10.5804 8.86652 10.5804C10.4624 10.5804 11.7665 9.30811 11.7665 7.73805C11.7665 6.168 10.4624 4.89575 8.86652 4.89575ZM8.86652 9.51113C7.86324 9.51113 7.05223 8.71261 7.05223 7.73805C7.05223 6.76349 7.86324 5.96498 8.86652 5.96498C9.86979 5.96498 10.6808 6.76349 10.6808 7.73805C10.6808 8.71261 9.86979 9.51113 8.86652 9.51113Z" fill="#272727" stroke="#272727" stroke-width="0.3"/>
<path d="M14.3645 12.3836L14.3644 12.3835L14.3608 12.3882L9.52918 18.6079C9.18889 19.046 8.52698 19.046 8.18667 18.6079L3.34603 12.3768L3.34612 12.3768L3.34236 12.3723C1.26463 9.90283 1.56262 5.83574 3.98134 3.68005L3.98135 3.68005C5.28148 2.52111 7.01259 1.8805 8.85794 1.8805C10.7033 1.8805 12.4344 2.52111 13.735 3.68006C16.1535 5.8356 16.4518 9.90267 14.3645 12.3836ZM14.5139 2.93964C13.0007 1.59076 10.9912 0.85 8.85794 0.85C6.72422 0.85 4.71515 1.59076 3.20194 2.93963C0.396158 5.44033 0.0464728 10.1367 2.4459 12.9902L7.94972 20.0753C8.41014 20.668 9.30572 20.668 9.76611 20.0753L15.2606 13.0015C17.6693 10.1368 17.3199 5.44047 14.5139 2.93964Z" fill="#272727" stroke="#272727" stroke-width="0.3"/>
</svg>
