<svg width="10" height="15" viewBox="0 0 10 15" fill="none" xmlns="http://www.w3.org/2000/svg">
<path d="M8.04662 14.1L8.04712 14.1C8.63083 14.0971 9.1 13.6194 9.1 13.0349V9.52437V1.96247C9.1 1.37785 8.62802 0.9 8.04662 0.9H1.95338C1.37198 0.9 0.9 1.37785 0.9 1.96247V13.0375C0.9 13.6221 1.37198 14.1 1.95338 14.1L8.04662 14.1ZM8.37997 9.52437V13.0375C8.37997 13.2245 8.2295 13.375 8.04662 13.375H1.95338C1.7705 13.375 1.62003 13.2245 1.62003 13.0375V1.96247C1.62003 1.77632 1.76971 1.62764 1.95338 1.62764H8.04662C8.22989 1.62764 8.37997 1.77857 8.37997 1.96247V9.52437Z" fill="#7DB94A" stroke="#7DB94A" stroke-width="0.2"/>
<path d="M5.78268 11.7975H4.21997C4.0194 11.7975 3.85996 11.9598 3.85996 12.16C3.85996 12.3601 4.0194 12.5224 4.21997 12.5224H5.78268C5.98325 12.5224 6.14269 12.3601 6.14269 12.16C6.14269 11.9598 5.98325 11.7975 5.78268 11.7975Z" fill="#4F4F4F" stroke="#7DB94A" stroke-width="0.2"/>
</svg>
