<svg width="14" height="20" viewBox="0 0 14 20" fill="none" xmlns="http://www.w3.org/2000/svg">
<path d="M13.6 18.5151C13.6 18.8324 13.3371 19.1 13 19.1H1C0.662787 19.1 0.4 18.8324 0.4 18.5151V12.6059C0.403616 9.38895 3.05228 6.77176 6.33356 6.76803H7.66644C10.9476 6.77176 13.5964 9.38906 13.6 12.6062V18.5151Z" stroke="#097F8D" stroke-width="0.8"/>
<path d="M4.04538 1.16797L4.05556 1.15939L4.06514 1.15016C4.22936 0.991946 4.45628 0.9 4.69681 0.9C4.93714 0.9 5.16429 0.991972 5.32848 1.15016L5.33495 1.15639L5.34169 1.16232C6.34831 2.04852 7.89095 2.04847 8.89776 1.16236L8.90467 1.15628L8.91129 1.14988C9.07503 0.991829 9.30136 0.9 9.54126 0.9C9.78096 0.9 10.0075 0.991855 10.1712 1.14988L10.1808 1.15913L10.191 1.16773C10.3437 1.29665 10.5093 1.40986 10.6851 1.50581L8.99764 4.73478H5.23691L3.55011 1.50631C3.72618 1.41031 3.8922 1.29705 4.04538 1.16797Z" stroke="#097F8D" stroke-width="0.8"/>
<mask id="path-3-inside-1_5_610" fill="white">
<path d="M4.18207 15.4529L9.22397 10.4873L9.81808 11.0724L4.77638 16.0382L4.18207 15.4529Z"/>
</mask>
<path d="M4.18207 15.4529L9.22397 10.4873L9.81808 11.0724L4.77638 16.0382L4.18207 15.4529Z" fill="#097F8D"/>
<path d="M4.18207 15.4529L3.48183 14.7419L2.75991 15.4528L3.48182 16.1638L4.18207 15.4529ZM9.22397 10.4873L9.92422 9.77632L9.22398 9.08666L8.52374 9.7763L9.22397 10.4873ZM9.81808 11.0724L10.5183 11.7834L11.2402 11.0724L10.5183 10.3615L9.81808 11.0724ZM4.77638 16.0382L4.07613 16.7492L4.77639 17.4389L5.47664 16.7492L4.77638 16.0382ZM4.8823 16.1639L9.92421 11.1983L8.52374 9.7763L3.48183 14.7419L4.8823 16.1639ZM8.52372 11.1983L9.11783 11.7834L10.5183 10.3615L9.92422 9.77632L8.52372 11.1983ZM9.11781 10.3615L4.07612 15.3272L5.47664 16.7492L10.5183 11.7834L9.11781 10.3615ZM5.47663 15.3272L4.88232 14.7419L3.48182 16.1638L4.07613 16.7492L5.47663 15.3272Z" fill="#097F8D" mask="url(#path-3-inside-1_5_610)"/>
<mask id="path-5-inside-2_5_610" fill="white">
<path d="M8.6806 13.6763C7.98432 13.6763 7.42017 14.2321 7.42017 14.9177C7.42017 15.6032 7.98432 16.159 8.6806 16.159C9.37666 16.159 9.94102 15.6032 9.94102 14.9177C9.94102 14.2321 9.37666 13.6763 8.6806 13.6763ZM8.6806 15.3315C8.44837 15.3315 8.26045 15.1462 8.26045 14.9177C8.26045 14.6891 8.44837 14.5039 8.6806 14.5039C8.91262 14.5039 9.10074 14.6891 9.10074 14.9177C9.10074 15.1462 8.91262 15.3315 8.6806 15.3315Z"/>
</mask>
<path d="M8.6806 13.6763C7.98432 13.6763 7.42017 14.2321 7.42017 14.9177C7.42017 15.6032 7.98432 16.159 8.6806 16.159C9.37666 16.159 9.94102 15.6032 9.94102 14.9177C9.94102 14.2321 9.37666 13.6763 8.6806 13.6763ZM8.6806 15.3315C8.44837 15.3315 8.26045 15.1462 8.26045 14.9177C8.26045 14.6891 8.44837 14.5039 8.6806 14.5039C8.91262 14.5039 9.10074 14.6891 9.10074 14.9177C9.10074 15.1462 8.91262 15.3315 8.6806 15.3315Z" fill="#097F8D"/>
<path d="M8.6806 12.6783C7.44745 12.6783 6.42224 13.6668 6.42224 14.9177H8.41809C8.41809 14.7974 8.52119 14.6742 8.6806 14.6742V12.6783ZM6.42224 14.9177C6.42224 16.1685 7.44745 17.157 8.6806 17.157V15.1611C8.52119 15.1611 8.41809 15.0379 8.41809 14.9177H6.42224ZM8.6806 17.157C9.91342 17.157 10.9389 16.1686 10.9389 14.9177H8.9431C8.9431 15.0378 8.8399 15.1611 8.6806 15.1611V17.157ZM10.9389 14.9177C10.9389 13.6667 9.91342 12.6783 8.6806 12.6783V14.6742C8.8399 14.6742 8.9431 14.7975 8.9431 14.9177H10.9389ZM8.6806 14.3335C8.98545 14.3335 9.25838 14.5811 9.25838 14.9177H7.26253C7.26253 15.7113 7.91129 16.3294 8.6806 16.3294V14.3335ZM9.25838 14.9177C9.25838 15.2542 8.98545 15.5018 8.6806 15.5018V13.5059C7.91129 13.5059 7.26253 14.124 7.26253 14.9177H9.25838ZM8.6806 15.5018C8.37586 15.5018 8.10281 15.2545 8.10281 14.9177H10.0987C10.0987 14.1237 9.44938 13.5059 8.6806 13.5059V15.5018ZM8.10281 14.9177C8.10281 14.5808 8.37586 14.3335 8.6806 14.3335V16.3294C9.44938 16.3294 10.0987 15.7116 10.0987 14.9177H8.10281Z" fill="#097F8D" mask="url(#path-5-inside-2_5_610)"/>
<mask id="path-7-inside-3_5_610" fill="white">
<path d="M5.31926 12.849C6.01532 12.849 6.57968 12.2932 6.57968 11.6076C6.57968 10.9221 6.01532 10.3662 5.31926 10.3662C4.62299 10.3662 4.05884 10.9221 4.05884 11.6076C4.05884 12.2932 4.62299 12.849 5.31926 12.849ZM5.31926 11.1938C5.55128 11.1938 5.7394 11.3791 5.7394 11.6076C5.7394 11.8361 5.55128 12.0214 5.31926 12.0214C5.08703 12.0214 4.89912 11.8361 4.89912 11.6076C4.89912 11.3791 5.08703 11.1938 5.31926 11.1938Z"/>
</mask>
<path d="M5.31926 12.849C6.01532 12.849 6.57968 12.2932 6.57968 11.6076C6.57968 10.9221 6.01532 10.3662 5.31926 10.3662C4.62299 10.3662 4.05884 10.9221 4.05884 11.6076C4.05884 12.2932 4.62299 12.849 5.31926 12.849ZM5.31926 11.1938C5.55128 11.1938 5.7394 11.3791 5.7394 11.6076C5.7394 11.8361 5.55128 12.0214 5.31926 12.0214C5.08703 12.0214 4.89912 11.8361 4.89912 11.6076C4.89912 11.3791 5.08703 11.1938 5.31926 11.1938Z" fill="#097F8D"/>
<path d="M5.31926 13.8469C6.5521 13.8469 7.57761 12.8586 7.57761 11.6076H5.58176C5.58176 11.7278 5.47855 11.8511 5.31926 11.8511V13.8469ZM7.57761 11.6076C7.57761 10.3567 6.5521 9.36829 5.31926 9.36829V11.3641C5.47855 11.3641 5.58176 11.4874 5.58176 11.6076H7.57761ZM5.31926 9.36829C4.08611 9.36829 3.06091 10.3568 3.06091 11.6076H5.05676C5.05676 11.4873 5.15987 11.3641 5.31926 11.3641V9.36829ZM3.06091 11.6076C3.06091 12.8585 4.08611 13.8469 5.31926 13.8469V11.8511C5.15987 11.8511 5.05676 11.7279 5.05676 11.6076H3.06091ZM5.31926 12.1917C5.01451 12.1917 4.74148 11.9445 4.74148 11.6076H6.73733C6.73733 10.8137 6.08806 10.1959 5.31926 10.1959V12.1917ZM4.74148 11.6076C4.74148 11.2707 5.01451 11.0235 5.31926 11.0235V13.0193C6.08806 13.0193 6.73733 12.4015 6.73733 11.6076H4.74148ZM5.31926 11.0235C5.62413 11.0235 5.89704 11.271 5.89704 11.6076H3.9012C3.9012 12.4012 4.54994 13.0193 5.31926 13.0193V11.0235ZM5.89704 11.6076C5.89704 11.9442 5.62413 12.1917 5.31926 12.1917V10.1959C4.54994 10.1959 3.9012 10.814 3.9012 11.6076H5.89704Z" fill="#097F8D" mask="url(#path-7-inside-3_5_610)"/>
</svg>
