<svg width="26" height="26" viewBox="0 0 26 26" fill="none" xmlns="http://www.w3.org/2000/svg">
<g clip-path="url(#clip0_5_1027)">
<path d="M0.750062 7.17987C0.740613 7.23124 0.735287 7.2833 0.733569 7.33535V8.40461C0.734944 8.84527 1.00862 9.2392 1.42144 9.39399V10.9673C1.42333 11.494 1.83753 11.927 2.36357 11.9519V21.0411C1.83753 21.0662 1.42333 21.4991 1.42144 22.0257V23.5943C1.00776 23.7532 0.734256 24.1501 0.733569 24.593V25.6389C0.733569 25.8339 0.891966 25.9921 1.08695 25.9921H24.9137C25.1087 25.9921 25.267 25.8339 25.267 25.6389V24.593C25.2663 24.1499 24.9928 23.7531 24.5793 23.5943V22.0164C24.5774 21.4897 24.163 21.0567 23.6371 21.0318V11.9519C24.163 11.927 24.5774 11.494 24.5793 10.9673V9.39399C24.9919 9.2392 25.2656 8.84527 25.267 8.40461V7.34239C25.2654 7.29034 25.2599 7.23828 25.2505 7.18692C25.4281 7.2656 25.6358 7.18554 25.7145 7.00791C25.7932 6.83044 25.7131 6.62274 25.5356 6.54388L13.1629 0.0408751C13.0596 -0.0135844 12.9363 -0.0135844 12.833 0.0408751L0.460413 6.53684C0.287758 6.62806 0.221616 6.84161 0.312496 7.01426C0.395646 7.17197 0.583247 7.2431 0.750062 7.17987ZM2.12804 10.0063V9.46219H6.20271V10.0016L2.12804 10.0063ZM11.2008 11.9543V21.0411C10.6747 21.0662 10.2605 21.4991 10.2586 22.0257V23.5284H6.9045V22.0257C6.90261 21.4991 6.4884 21.0662 5.96236 21.0411V11.9519C6.4884 11.927 6.90261 11.494 6.9045 10.9673V9.46219H10.2538V10.9651C10.2547 11.4927 10.6692 11.9266 11.1961 11.9519L11.2008 11.9543ZM10.9652 10.0063V9.46219H15.0401V10.0016L10.9652 10.0063ZM20.0382 11.9543V21.0411C19.5121 21.0662 19.0977 21.4991 19.0959 22.0257V23.5284H15.7419V22.0257C15.74 21.4991 15.3256 21.0662 14.7997 21.0411V11.9519C15.3256 11.927 15.74 11.494 15.7419 10.9673V9.46219H19.0912V10.9651C19.0919 11.4927 19.5064 11.9266 20.0333 11.9519L20.0382 11.9543ZM19.8026 10.0063V9.46219H23.8773V10.0016L19.8026 10.0063ZM23.8773 22.9891V23.5284H19.7978V22.9891H23.8773ZM15.0401 22.9891V23.5284H10.9606V22.9891H15.0401ZM11.5494 11.2523H11.2432C11.0871 11.2523 10.9606 11.1259 10.9606 10.9697V10.7129H15.0353V10.9697C15.0353 11.1259 14.9088 11.2523 14.7527 11.2523H11.5494ZM14.0955 11.9589V21.0365H11.9027V11.9589H14.0955ZM11.5494 21.7431H14.7527C14.9088 21.7431 15.0353 21.8695 15.0353 22.0257V22.2825H10.9606V22.0257C10.9606 21.8695 11.0871 21.7431 11.2432 21.7431H11.5494ZM6.19807 22.9891V23.5284H2.12323V22.9891H6.19807ZM2.12323 10.9767V10.7129H6.19807V10.9697C6.19807 11.1259 6.07163 11.2523 5.91529 11.2523H2.39879C2.24452 11.2485 2.12186 11.1216 2.12323 10.9673V10.9767ZM5.25594 11.9659V21.0365H3.06536V11.9589L5.25594 11.9659ZM2.12323 22.0329C2.12323 21.8765 2.24967 21.7501 2.40584 21.7501H5.91529C6.07163 21.7501 6.19807 21.8765 6.19807 22.0329V22.2895H2.12323V22.0329ZM24.5604 24.6072V25.2996H1.43553V24.6072C1.43553 24.4056 1.59891 24.242 1.8006 24.242H24.1953C24.3941 24.242 24.5566 24.4013 24.5604 24.6V24.6072ZM23.8727 22.0329V22.2895H19.7978V22.0329C19.7978 21.8765 19.9243 21.7501 20.0804 21.7501H23.5971C23.7478 21.7539 23.8689 21.875 23.8727 22.0257V22.0329ZM20.7399 21.0435V11.9589H22.9328V21.0365L20.7399 21.0435ZM23.8727 10.9767C23.8727 11.1329 23.7462 11.2594 23.59 11.2594H20.0828C19.9267 11.2594 19.8002 11.1329 19.8002 10.9767V10.7129H23.8749L23.8727 10.9767ZM12.9979 0.747474L23.5193 6.27777H2.47662L12.9979 0.747474ZM1.43553 7.34239C1.43553 7.1474 1.59375 6.98918 1.78874 6.98918H24.2071C24.4021 6.98918 24.5604 7.1474 24.5604 7.34239V8.41183C24.5604 8.60681 24.4021 8.76504 24.2071 8.76504H1.78874C1.59375 8.76504 1.43553 8.60681 1.43553 8.41183V7.34239Z" fill="#097F8D"/>
</g>
<defs>
<clipPath id="clip0_5_1027">
<rect width="26" height="26" fill="white"/>
</clipPath>
</defs>
</svg>
