<svg width="16" height="20" viewBox="0 0 16 20" fill="none" xmlns="http://www.w3.org/2000/svg">
<path d="M5.1888 4.01276C5.18567 4.01284 5.18255 4.01294 5.17944 4.01306L5.1888 4.01276Z" fill="#097F8D"/>
<path fill-rule="evenodd" clip-rule="evenodd" d="M13.8359 2.38952V3.04597H14.4923C15.3235 3.04597 16 3.72241 16 4.55363V17.6104C16 18.4417 15.3235 19.1181 14.4923 19.1181H3.67177C2.84055 19.1181 2.16411 18.4417 2.16411 17.6104V16.954H1.50766C0.67644 16.954 0 16.2775 0 15.4463V2.38952C0 1.5583 0.67644 0.881857 1.50766 0.881857H12.3282C13.1594 0.881857 13.8359 1.5583 13.8359 2.38952ZM2.16411 6.08387C2.16411 5.68094 2.32075 5.30272 2.60568 5.01783L4.13597 3.48754C4.42087 3.20264 4.79909 3.04597 5.20202 3.04597H12.9847V2.38952C12.9847 2.02745 12.6903 1.73307 12.3282 1.73307H1.50766C1.1456 1.73307 0.851217 2.02745 0.851217 2.38952V15.4463C0.851217 15.8084 1.1456 16.1028 1.50766 16.1028H2.16411V6.08387ZM5.41028 6.29213V3.89718H5.20202C5.02692 3.89718 4.86169 3.96561 4.73786 4.08944L3.20758 5.61972C3.08375 5.74355 3.01533 5.90878 3.01533 6.08387V6.29213H5.41028ZM5.83588 7.14335H3.01533V17.6104C3.01533 17.9725 3.30971 18.2669 3.67177 18.2669H14.4923C14.8544 18.2669 15.1488 17.9725 15.1488 17.6104V4.55363C15.1488 4.19156 14.8544 3.89718 14.4923 3.89718H6.26149V6.71774C6.26149 6.95279 6.07093 7.14335 5.83588 7.14335Z" fill="#097F8D"/>
<path d="M4.75386 8.5284H13.4103C13.6453 8.5284 13.8359 8.71896 13.8359 8.95401C13.8359 9.18906 13.6453 9.37962 13.4103 9.37962H4.75386C4.51881 9.37962 4.32825 9.18906 4.32825 8.95401C4.32825 8.71896 4.51881 8.5284 4.75386 8.5284Z" fill="#097F8D"/>
<path d="M4.75386 10.6925H13.4103C13.6453 10.6925 13.8359 10.8831 13.8359 11.1181C13.8359 11.3532 13.6453 11.5437 13.4103 11.5437H4.75386C4.51881 11.5437 4.32825 11.3532 4.32825 11.1181C4.32825 10.8831 4.51881 10.6925 4.75386 10.6925Z" fill="#097F8D"/>
<path d="M4.75386 12.8566H13.4103C13.6453 12.8566 13.8359 13.0472 13.8359 13.2822C13.8359 13.5173 13.6453 13.7078 13.4103 13.7078H4.75386C4.51881 13.7078 4.32825 13.5173 4.32825 13.2822C4.32825 13.0472 4.51881 12.8566 4.75386 12.8566Z" fill="#097F8D"/>
<path d="M4.75386 15.0207H13.4103C13.6453 15.0207 13.8359 15.2113 13.8359 15.4463C13.8359 15.6814 13.6453 15.8719 13.4103 15.8719H4.75386C4.51881 15.8719 4.32825 15.6814 4.32825 15.4463C4.32825 15.2113 4.51881 15.0207 4.75386 15.0207Z" fill="#097F8D"/>
</svg>
