<svg width="20" height="20" viewBox="0 0 20 20" fill="none" xmlns="http://www.w3.org/2000/svg">
<path d="M13.3878 15.9028L13.3877 15.9029L11.9333 17.3586L11.9332 17.3587L11.9686 17.394L13.3878 15.9028ZM13.3878 15.9028C13.471 15.8197 13.5844 15.7762 13.6939 15.7762M13.3878 15.9028L13.6939 15.7762M13.6939 15.7762C13.8033 15.7762 13.9167 15.8197 14 15.9028M13.6939 15.7762L14 15.9028M14 15.9028C14.1704 16.073 14.1704 16.3441 14 16.5142M14 15.9028V16.5142M14 16.5142L13.2848 17.2282M14 16.5142L13.2848 17.2282M13.2848 17.2282H15.8291C17.4031 17.2282 18.6842 15.9491 18.6842 14.3781V12.6636C18.6842 12.4235 18.8769 12.2313 19.1171 12.2313C19.3574 12.2313 19.5501 12.4235 19.5501 12.6636V14.382C19.5501 16.4293 17.8798 18.0966 15.8291 18.0966H13.2848V17.2282Z" fill="#097F8D" stroke="#097F8D" stroke-width="0.1"/>
<path d="M10.6688 0.449512H19.0784C19.3187 0.449512 19.5114 0.641724 19.5114 0.881804V9.28064C19.5114 9.52072 19.3187 9.71293 19.0784 9.71293H10.6688C10.4286 9.71293 10.2359 9.52072 10.2359 9.28064V0.885666C10.2359 0.646242 10.4279 0.449512 10.6688 0.449512ZM11.1018 8.84835H18.6455V1.31796H11.1018V8.84835Z" fill="#097F8D" stroke="#097F8D" stroke-width="0.1"/>
<path d="M0.882957 7.76745C0.642671 7.76745 0.45 7.57523 0.45 7.33515V5.61677C0.45 3.56948 2.12034 1.90216 4.17097 1.90216H6.71533L6.00014 1.18821C5.82971 1.01808 5.82971 0.746954 6.00014 0.576821C6.08336 0.493741 6.1968 0.450222 6.30624 0.450222C6.41569 0.450222 6.52912 0.493741 6.61234 0.576821L8.06681 2.02876C8.23723 2.19889 8.23723 2.47002 8.06681 2.64015L6.61234 4.09209C6.44196 4.26218 6.17052 4.26218 6.00014 4.09209C5.82971 3.92196 5.82971 3.65084 6.00014 3.4807L6.71533 2.76675H4.17097C2.59705 2.76675 1.31591 4.04578 1.31591 5.61677V7.33515C1.31591 7.57523 1.12324 7.76745 0.882957 7.76745Z" fill="#097F8D" stroke="#097F8D" stroke-width="0.1"/>
<path d="M0.487598 19.1167V10.7217C0.487598 10.4816 0.680268 10.2894 0.920554 10.2894H9.33013C9.57041 10.2894 9.76308 10.4816 9.76308 10.7217V19.1167C9.76308 19.3568 9.57041 19.549 9.33013 19.549H0.920554C0.67994 19.549 0.487598 19.3526 0.487598 19.1167ZM1.35351 18.6844H8.89717V11.154H1.35351V18.6844Z" fill="#097F8D" stroke="#097F8D" stroke-width="0.1"/>
</svg>
