<svg width="24" height="24" viewBox="0 0 24 24" fill="none" xmlns="http://www.w3.org/2000/svg">
<g clip-path="url(#clip0_5_642)">
<path fill-rule="evenodd" clip-rule="evenodd" d="M17.6965 1.10303H2.84424C2.29195 1.10303 1.84424 1.55074 1.84424 2.10303V20.2821C1.84424 20.8344 2.29195 21.2821 2.84424 21.2821H12.9009C13.0389 21.6332 13.2096 21.9677 13.4092 22.2821H2.84424C1.73967 22.2821 0.844238 21.3867 0.844238 20.2821V2.10303C0.844238 0.998458 1.73967 0.103027 2.84424 0.103027H17.6965C18.801 0.103027 19.6965 0.998458 19.6965 2.10303V13.3917C19.3725 13.3177 19.0383 13.2704 18.6965 13.2523V2.10303C18.6965 1.55074 18.2487 1.10303 17.6965 1.10303ZM12.5275 18.5092C12.5683 18.119 12.6473 17.7402 12.7607 17.3765H4.51071C4.19792 17.3765 3.94434 17.6301 3.94434 17.9428C3.94434 18.2556 4.19792 18.5092 4.51071 18.5092H12.5275ZM13.6486 15.6293C13.9635 15.2042 14.3344 14.823 14.7503 14.4966H4.51071C4.19792 14.4966 3.94434 14.7502 3.94434 15.063C3.94434 15.3758 4.19792 15.6293 4.51071 15.6293H13.6486ZM16.0302 11.6167H4.51071C4.19792 11.6167 3.94434 11.8703 3.94434 12.1831C3.94434 12.4959 4.19792 12.7495 4.51071 12.7495H16.0302C16.343 12.7495 16.5966 12.4959 16.5966 12.1831C16.5966 11.8703 16.343 11.6167 16.0302 11.6167ZM6.07115 3.09106C5.9961 3.016 5.89428 2.97385 5.78813 2.9739C5.68199 2.97395 5.58021 3.01618 5.50522 3.09131L4.48194 4.1164L4.48177 4.11656C4.22311 4.37513 4.04691 4.70459 3.97547 5.06329C3.90401 5.42206 3.94056 5.79397 4.0805 6.13197C4.22044 6.46997 4.45748 6.75888 4.76163 6.96214C5.06579 7.16541 5.42339 7.2739 5.78922 7.2739C6.15504 7.2739 6.51264 7.16541 6.8168 6.96214C7.12095 6.75888 7.35799 6.46997 7.49793 6.13197C7.63787 5.79397 7.67442 5.42206 7.60297 5.06329C7.53152 4.70456 7.35529 4.37507 7.09658 4.11649L7.09649 4.1164L6.07115 3.09106ZM5.04778 4.68192L5.78856 3.93984L6.5309 4.68218L6.53099 4.68227C6.67782 4.829 6.77783 5.01598 6.81838 5.21955C6.85892 5.42313 6.83818 5.63416 6.75878 5.82595C6.67937 6.01774 6.54487 6.18167 6.37229 6.297C6.19971 6.41234 5.99679 6.4739 5.78922 6.4739C5.58164 6.4739 5.37873 6.41234 5.20615 6.297C5.03356 6.18167 4.89906 6.01774 4.81966 5.82595C4.74025 5.63416 4.71951 5.42313 4.76006 5.21955C4.8006 5.01598 4.90062 4.829 5.04744 4.68227L5.04778 4.68192ZM13.6045 19.1296C13.6045 21.7583 15.7469 23.897 18.3802 23.897C21.0135 23.897 23.1559 21.7583 23.1559 19.1296C23.1559 16.501 21.0135 14.3624 18.3802 14.3624C15.7469 14.3624 13.6045 16.501 13.6045 19.1296ZM22.2877 19.1296C22.2877 21.2804 20.5348 23.0302 18.3802 23.0302C16.2256 23.0302 14.4727 21.2804 14.4727 19.1296C14.4727 16.979 16.2256 15.2293 18.3802 15.2293C20.5348 15.2293 22.2877 16.979 22.2877 19.1296ZM17.8595 16.5295V17.0373C17.3542 17.2161 16.9911 17.6979 16.9911 18.263C16.9911 18.9798 17.5754 19.5632 18.2936 19.5632C18.533 19.5632 18.7277 19.7576 18.7277 19.9965C18.7277 20.2354 18.533 20.4298 18.2936 20.4298C18.1082 20.4298 17.9079 20.3135 17.7299 20.102C17.5755 19.9188 17.3017 19.8952 17.1182 20.0492C16.9346 20.2033 16.9109 20.4766 17.0653 20.6598C17.2973 20.9353 17.5703 21.1273 17.8595 21.2242V21.73C17.8595 21.9695 18.0539 22.1633 18.2936 22.1633C18.5333 22.1633 18.7277 21.9695 18.7277 21.73V21.2222C19.2331 21.0432 19.5961 20.5614 19.5961 19.9965C19.5961 19.2795 19.0119 18.6963 18.2936 18.6963C18.0543 18.6963 17.8595 18.5019 17.8595 18.263C17.8595 18.024 18.0543 17.8295 18.2936 17.8295C18.4475 17.8295 18.6098 17.9079 18.7632 18.056C18.9356 18.2225 19.2104 18.2179 19.3771 18.046C19.5439 17.874 19.5393 17.5997 19.3671 17.4332C19.1468 17.2204 18.9262 17.1 18.7277 17.0343V16.5295C18.7277 16.29 18.5333 16.0959 18.2936 16.0959C18.0539 16.0959 17.8595 16.29 17.8595 16.5295Z" fill="#097F8D"/>
</g>
<defs>
<clipPath id="clip0_5_642">
<rect width="24" height="24" fill="white"/>
</clipPath>
</defs>
</svg>
