<svg width="14" height="13" viewBox="0 0 14 13" fill="none" xmlns="http://www.w3.org/2000/svg">
<path d="M6.96057 7C8.8931 7 10.4606 5.4301 10.4606 3.49463C10.4606 1.55916 8.89308 0 6.96057 0C5.02807 0 3.46057 1.5699 3.46057 3.49463C3.46057 5.41936 5.02804 7 6.96057 7ZM6.96057 0.913981C8.37774 0.913981 9.53727 2.07526 9.53727 3.49463C9.53727 4.914 8.37774 6.07526 6.96057 6.07526C5.5434 6.07526 4.38388 4.91398 4.38388 3.49461C4.38388 2.07524 5.54338 0.913981 6.96057 0.913981Z" fill="#7DB94A"/>
<path d="M0.494248 13H13.5058C13.7816 13 14 12.7898 14 12.5243C14 10.0354 11.8966 8 9.29884 8H4.70116C2.11495 8 0 10.0243 0 12.5243C0 12.7898 0.218387 13 0.494248 13ZM4.70116 8.95132H9.29884C11.1839 8.95132 12.7356 10.3009 12.977 12.0487H1.02298C1.26436 10.312 2.8161 8.95132 4.70116 8.95132Z" fill="#7DB94A"/>
</svg>
