<svg width="14" height="16" viewBox="0 0 14 16" fill="none" xmlns="http://www.w3.org/2000/svg">
<path d="M6.90347 8.54359C6.91796 8.54359 6.93246 8.54359 6.94985 8.54359C6.95565 8.54359 6.96145 8.54359 6.96725 8.54359C6.97595 8.54359 6.98754 8.54359 6.99624 8.54359C7.84569 8.5291 8.53279 8.23048 9.04014 7.65935C10.1563 6.40112 9.97077 4.24415 9.95047 4.03831C9.878 2.49306 9.14741 1.75378 8.54439 1.40878C8.09502 1.15076 7.57027 1.0116 6.98464 1H6.96435C6.96145 1 6.95565 1 6.95275 1H6.93536C6.61355 1 5.98154 1.05218 5.37561 1.39718C4.76679 1.74218 4.02461 2.48147 3.95213 4.03831C3.93184 4.24415 3.74629 6.40112 4.86247 7.65935C5.36692 8.23048 6.05402 8.5291 6.90347 8.54359ZM4.72621 4.11079C4.72621 4.10209 4.7291 4.09339 4.7291 4.0876C4.82478 2.0089 6.30044 1.78567 6.93246 1.78567H6.94406C6.94985 1.78567 6.95855 1.78567 6.96725 1.78567C7.75002 1.80306 9.08073 2.12197 9.1706 4.0876C9.1706 4.09629 9.1706 4.10499 9.1735 4.11079C9.1764 4.13108 9.37934 6.10251 8.45741 7.1404C8.09212 7.55208 7.60506 7.75502 6.96435 7.76082C6.95855 7.76082 6.95565 7.76082 6.94985 7.76082C6.94406 7.76082 6.94116 7.76082 6.93536 7.76082C6.29754 7.75502 5.80759 7.55208 5.44519 7.1404C4.52616 6.1083 4.72331 4.12818 4.72621 4.11079Z" fill="#097F8D" stroke="#097F8D" stroke-width="0.3"/>
<path d="M12.9076 12.1211C12.9076 12.1182 12.9076 12.1153 12.9076 12.1124C12.9076 12.0892 12.9047 12.0661 12.9047 12.04C12.8873 11.4659 12.8496 10.1236 11.5914 9.69454C11.5827 9.69165 11.5711 9.68875 11.5624 9.68585C10.2549 9.35245 9.1677 8.59866 9.1561 8.58997C8.97925 8.4653 8.73573 8.50879 8.61106 8.68564C8.4864 8.86249 8.52989 9.10602 8.70673 9.23068C8.75602 9.26547 9.90988 10.0685 11.3537 10.4396C12.0292 10.6803 12.1045 11.4021 12.1248 12.0632C12.1248 12.0892 12.1248 12.1124 12.1277 12.1356C12.1306 12.3966 12.1132 12.7995 12.0668 13.0315C11.5972 13.2982 9.75623 14.2201 6.95565 14.2201C4.16666 14.2201 2.3141 13.2953 1.84154 13.0286C1.79516 12.7966 1.77486 12.3937 1.78066 12.1327C1.78066 12.1095 1.78356 12.0863 1.78356 12.0603C1.80385 11.3992 1.87923 10.6774 2.55473 10.4367C3.99851 10.0656 5.15237 9.25967 5.20166 9.22778C5.37851 9.10312 5.422 8.85959 5.29733 8.68274C5.17267 8.50589 4.92914 8.46241 4.75229 8.58707C4.74069 8.59577 3.65931 9.34955 2.346 9.68295C2.3344 9.68585 2.3257 9.68875 2.317 9.69165C1.05877 10.1236 1.02108 11.4659 1.00369 12.0371C1.00369 12.0632 1.00369 12.0863 1.00079 12.1095C1.00079 12.1124 1.00079 12.1153 1.00079 12.1182C0.99789 12.269 0.994991 13.0431 1.14865 13.4316C1.17764 13.5069 1.22982 13.5707 1.2994 13.6142C1.38638 13.6722 3.47087 15 6.95855 15C10.4462 15 12.5307 13.6693 12.6177 13.6142C12.6844 13.5707 12.7395 13.5069 12.7684 13.4316C12.9134 13.046 12.9105 12.2719 12.9076 12.1211Z" fill="#097F8D" stroke="#097F8D" stroke-width="0.3"/>
</svg>
