<svg width="32" height="32" viewBox="0 0 32 32" fill="none" xmlns="http://www.w3.org/2000/svg">
<rect width="32" height="32" rx="5" fill="#FF6666"/>
<g clip-path="url(#clip0_0_1)">
<path d="M9.14035 15.1861L15.3233 10.0906C15.438 9.99592 15.5987 9.97584 15.7335 10.039C15.8684 10.1021 15.9545 10.2398 15.9545 10.389V13.0745C18.9555 13.1835 21.0184 14.2422 22.0915 16.2247C23.0153 17.9347 23.0067 19.9603 22.9981 21.3002C22.9981 21.4092 22.9981 21.5125 22.9981 21.61C22.9981 21.7851 22.8805 21.94 22.7083 21.9859C22.6768 21.9945 22.6423 21.9974 22.6108 21.9974C22.4731 21.9974 22.3439 21.9256 22.2751 21.8023C20.1806 18.1097 18.4563 17.9319 15.9573 17.9232V20.6001C15.9573 20.7493 15.8713 20.887 15.7335 20.9501C15.5958 21.0133 15.438 20.9932 15.3204 20.8985L9.14035 15.7858C9.05141 15.7112 8.99977 15.6021 8.99977 15.4874C8.99977 15.3726 9.05141 15.2607 9.14035 15.1861ZM15.1798 19.7767V17.5359C15.1798 17.4326 15.22 17.3351 15.2946 17.2634C15.3663 17.1916 15.4667 17.1486 15.5671 17.1486C17.1279 17.1486 18.3243 17.1916 19.4863 17.7339C20.4905 18.2015 21.3598 18.9963 22.2177 20.2443C22.1833 19.1053 22.0341 17.7454 21.4115 16.5949C20.4245 14.7701 18.5137 13.8663 15.5671 13.8405C15.3548 13.8376 15.1827 13.6655 15.1827 13.4532V11.2096L9.99821 15.4874L15.1798 19.7767Z" fill="white"/>
</g>
<defs>
<clipPath id="clip0_0_1">
<rect width="14" height="14" fill="white" transform="matrix(-1 0 0 1 23 9)"/>
</clipPath>
</defs>
</svg>
