<svg width="24" height="24" viewBox="0 0 24 24" fill="none" xmlns="http://www.w3.org/2000/svg">
<path d="M14.4486 19.1297C14.4486 21.7583 16.591 23.8971 19.2243 23.8971C21.8576 23.8971 24 21.7583 24 19.1297C24 16.501 21.8576 14.3625 19.2243 14.3625C16.591 14.3625 14.4486 16.501 14.4486 19.1297ZM23.1318 19.1297C23.1318 21.2804 21.3789 23.0302 19.2243 23.0302C17.0697 23.0302 15.3168 21.2804 15.3168 19.1297C15.3168 16.9791 17.0697 15.2293 19.2243 15.2293C21.3789 15.2293 23.1318 16.9791 23.1318 19.1297Z" fill="#097F8D"/>
<path d="M18.7035 16.5295V17.0373C18.1981 17.2162 17.8351 17.6979 17.8351 18.263C17.8351 18.9798 18.4193 19.5632 19.1376 19.5632C19.3769 19.5632 19.5717 19.7576 19.5717 19.9965C19.5717 20.2355 19.3769 20.4299 19.1376 20.4299C18.9521 20.4299 18.7518 20.3135 18.5738 20.102C18.4195 19.9188 18.1457 19.8953 17.9621 20.0492C17.7786 20.2033 17.7548 20.4766 17.9092 20.6598C18.1413 20.9353 18.4142 21.1274 18.7035 21.2242V21.73C18.7035 21.9695 18.8979 22.1634 19.1376 22.1634C19.3773 22.1634 19.5717 21.9695 19.5717 21.73V21.2222C20.077 21.0432 20.4401 20.5614 20.4401 19.9965C20.4401 19.2795 19.8558 18.6963 19.1376 18.6963C18.8982 18.6963 18.7035 18.5019 18.7035 18.263C18.7035 18.0241 18.8982 17.8295 19.1376 17.8295C19.2914 17.8295 19.4538 17.9079 19.6071 18.0561C19.7795 18.2225 20.0543 18.218 20.2211 18.0461C20.3878 17.874 20.3832 17.5997 20.211 17.4332C19.9907 17.2204 19.7702 17.1 19.5717 17.0343V16.5295C19.5717 16.29 19.3773 16.096 19.1376 16.096C18.8979 16.096 18.7035 16.29 18.7035 16.5295Z" fill="#097F8D"/>
<path fill-rule="evenodd" clip-rule="evenodd" d="M14.5636 0.102921C15.4891 0.102921 16.2629 0.762613 16.4411 1.6362H20.2286C21.3332 1.6362 22.2286 2.53163 22.2286 3.6362V14.0674C21.984 13.9219 21.7279 13.7936 21.4621 13.6842V13.5191V11.2192H16.8631V13.7367C16.5967 13.8536 16.3406 13.9896 16.0966 14.143V11.2192H11.4976V15.819H14.3579C14.1922 16.0621 14.0443 16.3183 13.916 16.5857H11.4976V21.1855H13.7082C13.807 21.4506 13.9244 21.7067 14.0587 21.9521H2C0.895431 21.9521 0 21.0567 0 19.9521V3.6362C0 2.53163 0.895429 1.6362 2 1.6362H5.78748C5.9657 0.762613 6.73987 0.102921 7.66504 0.102921C8.72166 0.102921 9.58129 0.962706 9.58129 2.01952C9.58129 3.07633 8.72166 3.93611 7.66504 3.93611C7.45348 3.93611 7.28178 3.76477 7.28178 3.55279C7.28178 3.34082 7.45348 3.16948 7.66504 3.16948C8.29893 3.16948 8.81479 2.65353 8.81479 2.01952C8.81479 1.38551 8.29893 0.869559 7.66504 0.869559C7.16604 0.869559 6.74446 1.19078 6.5858 1.6362H7.28178C7.49334 1.6362 7.66504 1.80754 7.66504 2.01952C7.66504 2.23149 7.49334 2.40284 7.28178 2.40284H1.9665C1.30376 2.40284 0.766504 2.94009 0.766504 3.60284V5.08607H21.4621V3.60284C21.4621 2.94009 20.9248 2.40284 20.2621 2.40284H16.4411C16.2629 3.27642 15.4887 3.93611 14.5636 3.93611C14.352 3.93611 14.1803 3.76477 14.1803 3.55279C14.1803 3.34082 14.352 3.16948 14.5636 3.16948C15.1975 3.16948 15.7133 2.65353 15.7133 2.01952C15.7133 1.38551 15.1975 0.869559 14.5636 0.869559C14.352 0.869559 14.1803 0.698215 14.1803 0.48624C14.1803 0.274264 14.352 0.102921 14.5636 0.102921ZM16.0966 5.85271H11.4976V10.4525H16.0966V5.85271ZM10.731 11.2192H6.13203V15.819H10.731V11.2192ZM10.731 5.85271H6.13203V10.4525H10.731V5.85271ZM5.36552 5.85271H0.766504V10.4525H5.36552V5.85271ZM5.36552 11.2192H0.766504V15.819H5.36552V11.2192ZM0.766504 19.9855C0.766504 20.6482 1.30376 21.1855 1.9665 21.1855H5.36552V16.5857H0.766504V19.9855ZM6.13203 16.5857V21.1855H10.731V16.5857H6.13203ZM16.8631 5.85271V10.4525H21.4621V5.85271H16.8631ZM11.1143 2.01952C11.1143 1.38551 10.5984 0.869559 9.96455 0.869559C9.753 0.869559 9.5813 0.698215 9.5813 0.48624C9.5813 0.274264 9.753 0.102921 9.96455 0.102921C11.0212 0.102921 11.8808 0.962706 11.8808 2.01952C11.8808 3.07633 11.0212 3.93611 9.96455 3.93611C9.753 3.93611 9.5813 3.76477 9.5813 3.55279C9.5813 3.34082 9.753 3.16947 9.96455 3.16947C10.5984 3.16947 11.1143 2.65353 11.1143 2.01952ZM12.2641 0.869559C12.898 0.869559 13.4138 1.38551 13.4138 2.01952C13.4138 2.65353 12.898 3.16947 12.2641 3.16947C12.0525 3.16947 11.8808 3.34082 11.8808 3.55279C11.8808 3.76477 12.0525 3.93611 12.2641 3.93611C13.3207 3.93611 14.1803 3.07633 14.1803 2.01952C14.1803 0.962706 13.3207 0.102921 12.2641 0.102921C12.0525 0.102921 11.8808 0.274264 11.8808 0.48624C11.8808 0.698215 12.0525 0.869559 12.2641 0.869559ZM6.85676 15.4357C6.75865 15.4357 6.66053 15.3981 6.5858 15.3234C6.43595 15.1735 6.43595 14.9312 6.5858 14.7814L7.84785 13.5191L6.5858 12.2568C6.43595 12.107 6.43595 11.8647 6.5858 11.7148C6.73565 11.5649 6.97787 11.5649 7.12772 11.7148L8.38976 12.9771L9.65181 11.7148C9.80166 11.5649 10.0439 11.5649 10.1937 11.7148C10.3436 11.8647 10.3436 12.107 10.1937 12.2568L8.93168 13.5191L10.1937 14.7814C10.3436 14.9312 10.3436 15.1735 10.1937 15.3234C10.119 15.3981 10.0209 15.4357 9.92277 15.4357C9.82466 15.4357 9.72655 15.3981 9.65181 15.3234L8.38976 14.0611L7.12772 15.3234C7.05298 15.3981 6.95487 15.4357 6.85676 15.4357Z" fill="#097F8D"/>
</svg>
