<svg width="20" height="20" viewBox="0 0 20 20" fill="none" xmlns="http://www.w3.org/2000/svg">
<g clip-path="url(#clip0_8_3973)">
<path d="M19.9726 7.66828C19.9069 7.46714 19.7345 7.32347 19.5251 7.29063L13.2857 6.40397L10.4779 0.759726C10.3835 0.570901 10.1906 0.451859 9.98124 0.451859C9.77189 0.451859 9.57896 0.570901 9.48455 0.763831L6.71374 6.42449L0.474278 7.3522C0.264928 7.38504 0.0925219 7.52871 0.0268434 7.72985C-0.0388351 7.93099 0.0186336 8.15266 0.170515 8.29633L4.69823 12.6845L3.65148 18.8993C3.61453 19.1087 3.70073 19.318 3.87314 19.4411C3.96755 19.5109 4.08249 19.5479 4.19743 19.5479C4.28774 19.5479 4.37394 19.5273 4.45604 19.4822L10.0264 16.5308L15.6132 19.4494C15.6953 19.4904 15.7815 19.5109 15.8677 19.5109C16.1714 19.5109 16.4218 19.2605 16.4218 18.9568C16.4218 18.9116 16.4177 18.8706 16.4054 18.8295L15.3258 12.6516L19.8248 8.23886C19.9849 8.09109 20.0383 7.86942 19.9726 7.66828ZM14.3489 12.0646C14.2175 12.1919 14.16 12.3766 14.1929 12.5572L15.1329 17.947L10.2809 15.4142C10.1208 15.328 9.92788 15.3321 9.76368 15.4142L4.9281 17.9757L5.83529 12.5777C5.86402 12.3971 5.80655 12.2165 5.67519 12.0893L1.7509 8.27991L7.16528 7.47535C7.34589 7.44662 7.50188 7.33578 7.57987 7.17159L9.98534 2.25802L12.4237 7.15927C12.5058 7.32347 12.6617 7.4343 12.8424 7.46304L18.2608 8.23476L14.3489 12.0646Z" fill="#7DB94A"/>
</g>
<defs>
<clipPath id="clip0_8_3973">
<rect width="20" height="20" fill="white"/>
</clipPath>
</defs>
</svg>
