<svg width="26" height="26" viewBox="0 0 26 26" fill="none" xmlns="http://www.w3.org/2000/svg">
<path d="M24.8575 11.0954H24.4768V9.95263V5.89014C24.4768 4.56008 23.3947 3.47799 22.0647 3.47799H11.6049L4.54816 1.46177C4.54613 1.46121 4.54405 1.46091 4.54202 1.46035C4.53994 1.45979 4.53796 1.45898 4.53587 1.45847C4.53161 1.4574 4.52739 1.4569 4.52318 1.45598C4.51663 1.45461 4.51008 1.45319 4.50353 1.45212C4.49758 1.45116 4.49175 1.45055 4.4858 1.44984C4.4789 1.44903 4.47204 1.44831 4.46519 1.44791C4.4596 1.4476 4.45407 1.44755 4.44848 1.44745C4.44137 1.44735 4.43431 1.4473 4.42725 1.4476C4.42202 1.44781 4.41679 1.44831 4.41161 1.44872C4.40435 1.44933 4.39709 1.44999 4.38993 1.45106C4.38505 1.45177 4.38023 1.45268 4.37541 1.45354C4.36799 1.45487 4.36068 1.45629 4.35342 1.45806C4.3489 1.45918 4.34448 1.46045 4.34001 1.46172C4.3326 1.46385 4.32528 1.46604 4.31797 1.46858C4.31386 1.47005 4.3098 1.47162 4.30568 1.47325C4.29832 1.47609 4.29101 1.47909 4.28385 1.48239C4.28004 1.48417 4.27633 1.4861 4.27257 1.48797C4.26541 1.49158 4.25836 1.49524 4.25145 1.49935C4.24784 1.50143 4.24439 1.50367 4.24084 1.5059C4.23403 1.51017 4.22733 1.51453 4.22083 1.51926C4.21743 1.52169 4.21412 1.52433 4.21077 1.52692C4.20453 1.53175 4.19833 1.53667 4.19239 1.5419C4.18904 1.54485 4.18584 1.54795 4.18259 1.55099C4.177 1.55628 4.17147 1.56156 4.16619 1.56714C4.16289 1.57065 4.15979 1.5743 4.15659 1.57796C4.15177 1.58349 4.14699 1.58908 4.14247 1.59492C4.13922 1.59913 4.13618 1.60345 4.13308 1.60777C4.12907 1.6134 4.12511 1.61909 4.12145 1.62493C4.1183 1.62991 4.11541 1.63509 4.11251 1.64022C4.10931 1.64585 4.10611 1.65154 4.10322 1.65738C4.10038 1.66307 4.09784 1.66891 4.09525 1.67475C4.09271 1.68049 4.09022 1.68622 4.08798 1.69211C4.08565 1.69831 4.08362 1.70466 4.08154 1.71106C4.08021 1.71517 4.07859 1.71903 4.07737 1.72319C4.07676 1.72527 4.07651 1.72731 4.07595 1.72934C4.07539 1.73142 4.07458 1.7334 4.07407 1.73548L3.63857 3.47788H2.41236C1.08499 3.47788 0.00477343 4.55561 0.000406249 5.88202C0.000355468 5.88476 0 5.88735 0 5.89004V21.0931C0 21.0931 0.171285 21.0931 0.381011 21.0931C0.591245 21.0931 0.761717 21.0931 0.761717 21.0931V7.64671C1.19356 8.05276 1.77419 8.3023 2.41236 8.3023H22.0647L22.066 8.30225C22.9754 8.30296 23.7151 9.04304 23.7151 9.95268V12.6189H19.525C19.514 12.6189 19.5023 12.6196 19.4914 12.6206C19.4793 12.6216 19.4673 12.6234 19.4555 12.6255L19.4502 12.6264C19.4403 12.6283 19.4305 12.631 19.4208 12.6337C19.4187 12.6343 19.4165 12.6347 19.4144 12.6354C19.4058 12.638 19.3974 12.6412 19.3891 12.6444C19.3859 12.6456 19.3826 12.6466 19.3794 12.6479C19.3724 12.6508 19.3656 12.6542 19.3589 12.6575C19.3544 12.6597 19.3499 12.6617 19.3455 12.6639C19.3403 12.6667 19.3353 12.6699 19.3302 12.673C19.3246 12.6763 19.3188 12.6796 19.3133 12.6832C19.3096 12.6857 19.3062 12.6885 19.3027 12.6911C19.2962 12.6957 19.2896 12.7004 19.2834 12.7055C19.2807 12.7077 19.2783 12.7102 19.2757 12.7125C19.269 12.7183 19.2624 12.724 19.2561 12.7303C19.2524 12.734 19.249 12.7381 19.2455 12.7419C19.2406 12.7473 19.2355 12.7525 19.2308 12.7582C19.223 12.7678 19.2156 12.7777 19.2087 12.788L17.1771 15.8355C17.163 15.8568 17.151 15.8793 17.1415 15.9027C17.1379 15.9114 17.135 15.9203 17.1321 15.9291C17.1312 15.9318 17.1301 15.9344 17.1293 15.9371C17.1265 15.9465 17.1243 15.956 17.1222 15.9654C17.1216 15.9679 17.1209 15.9704 17.1204 15.9728C17.1187 15.9814 17.1176 15.99 17.1166 15.9985C17.1161 16.0022 17.1154 16.0058 17.115 16.0096C17.1143 16.0166 17.1142 16.0236 17.1139 16.0307C17.1137 16.0361 17.1132 16.0414 17.1132 16.0469C17.1132 16.0521 17.1137 16.0573 17.1139 16.0626C17.1141 16.0698 17.1143 16.077 17.115 16.0843C17.1154 16.0878 17.116 16.0913 17.1165 16.0948C17.1176 16.1035 17.1187 16.1122 17.1205 16.1209C17.1209 16.1233 17.1216 16.1256 17.1222 16.128C17.1243 16.1376 17.1265 16.1471 17.1293 16.1566C17.1302 16.1593 17.1313 16.1619 17.1321 16.1646C17.135 16.1735 17.1379 16.1824 17.1415 16.1911C17.1511 16.2145 17.1631 16.237 17.1773 16.2583L19.2084 19.3047C19.2166 19.3169 19.2258 19.3289 19.2352 19.34C19.2383 19.3436 19.2416 19.347 19.2448 19.3505C19.2513 19.3576 19.258 19.3644 19.2649 19.3709C19.2691 19.3748 19.2731 19.3785 19.2773 19.3821C19.2847 19.3885 19.2924 19.3944 19.3002 19.4002C19.3038 19.4028 19.3072 19.4056 19.3108 19.4081C19.3222 19.4159 19.3341 19.423 19.3463 19.4295C19.3494 19.4311 19.3526 19.4325 19.3557 19.434C19.3654 19.4389 19.3754 19.4434 19.3856 19.4474C19.3896 19.449 19.3935 19.4504 19.3975 19.4519C19.4072 19.4553 19.4171 19.4584 19.4271 19.461C19.4313 19.4621 19.4353 19.4632 19.4395 19.4642C19.4498 19.4666 19.4603 19.4685 19.4709 19.47C19.4747 19.4705 19.4785 19.4713 19.4824 19.4718C19.4955 19.4732 19.5088 19.474 19.5223 19.4741L19.5256 19.4744L23.7153 19.4743V22.1407C23.7153 23.0508 22.9749 23.7912 22.0649 23.7912H2.41256C1.50256 23.7912 0.762174 23.0508 0.762174 22.1407L0.76187 22.1348V20.6168C0.76187 20.407 0.591245 20.2359 0.381011 20.2359C0.171285 20.2359 0.000152343 20.407 0.000152343 20.6168V22.1407C0.000152343 22.1447 0.000609374 22.1485 0.000761717 22.1524C0.00710936 23.4771 1.08646 24.5529 2.41256 24.5529H22.0649C23.3948 24.5529 24.4768 23.471 24.477 22.1411V19.4743H24.8576C25.4875 19.4743 26 18.9618 26 18.3319V12.2378C25.9998 11.6079 25.4874 11.0954 24.8575 11.0954ZM4.71757 2.30235L11.4379 4.22254L15.9429 5.50969H3.91594L4.71757 2.30235ZM23.7151 8.19591C23.2833 7.78997 22.7027 7.54048 22.0647 7.54048L22.0627 7.54058H2.41236C1.50231 7.54058 0.76192 6.80019 0.76192 5.89014C0.76192 4.98009 1.50231 4.2397 2.41236 4.2397H3.44819L3.13081 5.50969H2.41246C2.20212 5.50969 2.0316 5.68021 2.0316 5.89055C2.0316 6.10088 2.20212 6.27141 2.41246 6.27141H3.42686L3.42849 6.27151L3.42966 6.27141H18.661L18.6624 6.27151L18.6636 6.27141H21.5564C21.7668 6.27141 21.9373 6.10088 21.9373 5.89055C21.9373 5.68021 21.7668 5.50969 21.5564 5.50969H18.7156L14.2708 4.2397H22.0647C22.9747 4.2397 23.7151 4.98009 23.7151 5.89014V8.19591ZM25.2381 18.3317C25.2381 18.5416 25.0674 18.7124 24.8575 18.7124H19.7289L17.9516 16.0467L19.7289 13.3806H24.8575C24.8628 13.3806 24.868 13.38 24.8733 13.3798C25.001 13.378 25.1237 13.3552 25.2381 13.3147V18.3317ZM24.8575 12.6184C24.8548 12.6184 24.8522 12.6188 24.8496 12.6188H24.4768V11.8571H24.8575C25.0674 11.8571 25.2381 12.0279 25.2381 12.2378C25.2381 12.4477 25.0674 12.6184 24.8575 12.6184Z" fill="#097F8D"/>
<path d="M21.0488 14.65C20.2788 14.65 19.6523 15.2765 19.6523 16.0465C19.6523 16.8166 20.2788 17.443 21.0488 17.443C21.8189 17.443 22.4453 16.8166 22.4453 16.0465C22.4453 15.2765 21.8189 14.65 21.0488 14.65ZM21.0488 16.6813C20.6988 16.6813 20.4141 16.3966 20.4141 16.0465C20.4141 15.6965 20.6988 15.4117 21.0488 15.4117C21.3989 15.4117 21.6836 15.6965 21.6836 16.0465C21.6836 16.3966 21.3989 16.6813 21.0488 16.6813Z" fill="#097F8D"/>
</svg>
